<svg xmlns="http://www.w3.org/2000/svg" xmlns:xlink="http://www.w3.org/1999/xlink" xmlns:fi="http://pattern.flaticon.com/" x="0" y="0" width="700" height="350" viewBox="0 0 700 350"><rect x="0px" y="0px" width="100%" height="100%" opacity="0" fill="#000000"/><defs><g transform="matrix(0.16441132179062717 -0.03712513721535041 0.03712513721535041 0.16441132179062717 210.20980368094556 17.656352502487103)" id="L1_0"><path d="m176 320c8.824219 0 16 7.175781 16 16h16c0-14.871094-10.230469-27.289062-24-30.863281v-17.136719h-16v17.136719c-13.769531 3.574219-24 15.992187-24 30.863281 0 17.648438 14.351562 32 32 32 8.824219 0 16 7.175781 16 16s-7.175781 16-16 16-16-7.175781-16-16h-16c0 14.871094 10.230469 27.289062 24 30.863281v17.136719h16v-17.136719c13.769531-3.574219 24-15.992187 24-30.863281 0-17.648438-14.351562-32-32-32-8.824219 0-16-7.175781-16-16s7.175781-16 16-16zm0 0"/><path d="m408 280h16v16h-16zm0 0"/><path d="m408 312h16v16h-16zm0 0"/><path d="m424 296h16v16h-16zm0 0"/><path d="m392 296h16v16h-16zm0 0"/><path d="m344 392h16v16h-16zm0 0"/><path d="m344 424h16v16h-16zm0 0"/><path d="m360 408h16v16h-16zm0 0"/><path d="m328 408h16v16h-16zm0 0"/><path d="m376 32h16v16h-16zm0 0"/><path d="m376 64h16v16h-16zm0 0"/><path d="m392 48h16v16h-16zm0 0"/><path d="m360 48h16v16h-16zm0 0"/><path d="m16 160h16v16h-16zm0 0"/><path d="m16 192h16v16h-16zm0 0"/><path d="m32 176h16v16h-16zm0 0"/><path d="m0 176h16v16h-16zm0 0"/><path d="m464 424h16v16h-16zm0 0"/><path d="m464 456h16v16h-16zm0 0"/><path d="m480 440h16v16h-16zm0 0"/><path d="m448 440h16v16h-16zm0 0"/><path d="m328 339.648438c0-37.929688-13.953125-73.625-39.167969-101.585938 8.121094-3.902344 17-6.0625 26.054688-6.0625h101.113281v-120h-84c-11.089844 0-21.960938-3.816406-30.617188-10.734375l-4.390624-3.511719c-4.710938-3.761718-9.808594-6.898437-15.175782-9.507812l12.421875-16.566406c6.289063-8.390626 9.761719-18.792969 9.761719-29.28125v-1.496094c0-13.039063-5.078125-25.292969-14.296875-34.511719l-6.390625-6.390625h-3.3125c-16.816406 0-25.359375 10.503906-32.222656 18.953125-6.777344 8.335937-11.035156 13.046875-19.808594 13.046875-8.777344 0-13.03125-4.710938-19.808594-13.046875-6.863281-8.449219-15.398437-18.953125-32.214844-18.953125-16.808593 0-25.34375 10.503906-32.210937 18.953125-6.765625 8.335937-11.023437 13.046875-19.789063 13.046875-8.753906 0-13-4.710938-19.761718-13.039062-6.847656-8.449219-15.382813-18.960938-32.183594-18.960938h-3.3125l-6.390625 6.390625c-9.21875 9.21875-14.296875 21.472656-14.296875 34.511719 0 11.640625 4.167969 22.921875 11.761719 31.761718l33.8125 39.464844c-12.09375 1.214844-21.574219 11.457032-21.574219 23.871094 0 8.519531 4.496094 15.976562 11.207031 20.230469-1.984375 3.496093-3.207031 7.472656-3.207031 11.769531 0 8.519531 4.496094 15.976562 11.207031 20.230469-1.984375 3.496093-3.207031 7.472656-3.207031 11.769531 0 3.695312.902344 7.152344 2.40625 10.28125l-21.878906 21.878906c-28.710938 28.710938-44.527344 66.886719-44.527344 107.488282v4.351562c0 83.816406 68.183594 152 152 152s152-68.183594 152-152zm-256.105469-277.402344c-5.085937-5.933594-7.894531-13.519532-7.894531-21.34375 0-8.765625 3.414062-17.007813 9.609375-23.199219l1.488281-1.488281c6.765625 1.023437 10.757813 5.539062 16.671875 12.832031 6.847657 8.449219 15.382813 18.953125 32.175781 18.953125 16.808594 0 25.34375-10.503906 32.207032-18.953125 6.769531-8.335937 11.023437-13.046875 19.792968-13.046875 8.765626 0 13.03125 4.710938 19.796876 13.046875 6.867187 8.449219 15.417968 18.953125 32.226562 18.953125s25.359375-10.503906 32.222656-18.953125c5.921875-7.285156 9.929688-11.816406 16.710938-12.832031l1.488281 1.488281c6.195313 6.191406 9.609375 14.441406 9.609375 23.199219v1.496094c0 7.050781-2.328125 14.042968-6.558594 19.691406l-37.441406 49.910156h-129.464844zm24.105469 65.753906h156l20.039062-26.71875c5.359376 2.292969 10.375 5.292969 14.960938 8.957031l4.382812 3.515625c11.480469 9.183594 25.914063 14.246094 40.617188 14.246094h68v88h-85.113281c-13.808594 0-27.367188 3.761719-39.207031 10.855469l-7.589844 4.558593c-9.355469 5.617188-20.074219 8.585938-30.976563 8.585938h-117.113281c-4.414062 0-8-3.585938-8-8s3.585938-8 8-8h88v-16h-96c-4.414062 0-8-3.585938-8-8s3.585938-8 8-8h96v-16h-104c-4.414062 0-8-3.585938-8-8s3.585938-8 8-8h104v-16h-112c-4.414062 0-8-3.585938-8-8s3.585938-8 8-8zm216 216c0 74.992188-61.007812 136-136 136s-136-61.007812-136-136v-4.351562c0-36.328126 14.152344-70.488282 39.832031-96.167969l16.808594-16.808594c-.394531 1.71875-.640625 3.488281-.640625 5.328125 0 13.230469 10.769531 24 24 24h117.113281c13.125 0 25.984375-3.496094 37.398438-9.9375 24.136719 25.386719 37.488281 58.433594 37.488281 93.585938zm0 0"/></g><g transform="matrix(0.08553710971563586 -0.0313636060823735 0.0313636060823735 0.08553710971563586 85.008621588024 185.56497020488126)" id="L1_1"><path d="m256 304v-17.472656c9.289062-3.3125 16-12.113282 16-22.527344 0-13.230469-10.769531-24-24-24-4.40625 0-8-3.585938-8-8s3.59375-8 8-8 8 3.585938 8 8h16c0-10.414062-6.710938-19.214844-16-22.527344v-17.472656h-16v17.472656c-9.289062 3.3125-16 12.113282-16 22.527344 0 13.230469 10.769531 24 24 24 4.40625 0 8 3.585938 8 8s-3.59375 8-8 8-8-3.585938-8-8h-16c0 10.414062 6.710938 19.214844 16 22.527344v17.472656zm0 0"/><path d="m336 248c0-48.519531-39.480469-88-88-88s-88 39.480469-88 88 39.480469 88 88 88 88-39.480469 88-88zm-160 0c0-39.703125 32.304688-72 72-72s72 32.296875 72 72-32.304688 72-72 72-72-32.296875-72-72zm0 0"/><path d="m120 144c-4.40625 0-8-3.585938-8-8h-16c0 10.414062 6.710938 19.214844 16 22.527344v17.472656h16v-17.472656c9.289062-3.3125 16-12.113282 16-22.527344 0-13.230469-10.769531-24-24-24-4.40625 0-8-3.585938-8-8s3.59375-8 8-8 8 3.585938 8 8h16c0-10.414062-6.710938-19.214844-16-22.527344v-17.472656h-16v17.472656c-9.289062 3.3125-16 12.113282-16 22.527344 0 13.230469 10.769531 24 24 24 4.40625 0 8 3.585938 8 8s-3.59375 8-8 8zm0 0"/><path d="m120 208c48.519531 0 88-39.480469 88-88s-39.480469-88-88-88-88 39.480469-88 88 39.480469 88 88 88zm0-160c39.695312 0 72 32.296875 72 72s-32.304688 72-72 72-72-32.296875-72-72 32.304688-72 72-72zm0 0"/><path d="m376 352c4.40625 0 8 3.585938 8 8h16c0-10.414062-6.710938-19.214844-16-22.527344v-17.472656h-16v17.472656c-9.289062 3.3125-16 12.113282-16 22.527344 0 13.230469 10.769531 24 24 24 4.40625 0 8 3.585938 8 8s-3.59375 8-8 8-8-3.585938-8-8h-16c0 10.414062 6.710938 19.214844 16 22.527344v17.472656h16v-17.472656c9.289062-3.3125 16-12.113282 16-22.527344 0-13.230469-10.769531-24-24-24-4.40625 0-8-3.585938-8-8s3.59375-8 8-8zm0 0"/><path d="m376 288c-48.519531 0-88 39.480469-88 88s39.480469 88 88 88 88-39.480469 88-88-39.480469-88-88-88zm0 160c-39.695312 0-72-32.296875-72-72s32.304688-72 72-72 72 32.296875 72 72-32.304688 72-72 72zm0 0"/><path d="m472 0h-448c-13.230469 0-24 10.769531-24 24v448c0 13.230469 10.769531 24 24 24h448c13.230469 0 24-10.769531 24-24v-448c0-13.230469-10.769531-24-24-24zm8 472c0 4.414062-3.59375 8-8 8h-448c-4.40625 0-8-3.585938-8-8v-448c0-4.414062 3.59375-8 8-8h448c4.40625 0 8 3.585938 8 8zm0 0"/><path d="m304 32h-64v64h64zm-16 48h-32v-32h32zm0 0"/><path d="m384 32h-64v64h64zm-16 48h-32v-32h32zm0 0"/><path d="m400 96h64v-64h-64zm16-48h32v32h-32zm0 0"/><path d="m400 176h64v-64h-64zm16-48h32v32h-32zm0 0"/><path d="m384 112h-64v64h64zm-16 48h-32v-32h32zm0 0"/><path d="m32 296h64v-64h-64zm16-48h32v32h-32zm0 0"/><path d="m400 256h64v-64h-64zm16-48h32v32h-32zm0 0"/><path d="m32 464h64v-64h-64zm16-48h32v32h-32zm0 0"/><path d="m32 384h64v-64h-64zm16-48h32v32h-32zm0 0"/><path d="m112 464h64v-64h-64zm16-48h32v32h-32zm0 0"/><path d="m112 384h64v-64h-64zm16-48h32v32h-32zm0 0"/><path d="m192 464h64v-64h-64zm16-48h32v32h-32zm0 0"/></g><g transform="matrix(0.09315637714752097 0.023289094236427162 -0.023289094236427162 0.09315637714752097 263.11397557476 120.18995932570928)" id="L1_2"><path d="M504.5,125.492c4.143,0,7.5-3.357,7.5-7.5V106c0-4.143-3.357-7.5-7.5-7.5H7.5c-4.143,0-7.5,3.357-7.5,7.5v11.992    c0,4.143,3.357,7.5,7.5,7.5c4.136,0,7.5,3.364,7.5,7.5s-3.364,7.5-7.5,7.5c-4.143,0-7.5,3.357-7.5,7.5v11.002    c0,4.142,3.357,7.5,7.499,7.5c4.136,0.001,7.501,3.365,7.501,7.5c0,4.136-3.364,7.5-7.5,7.5c-4.143,0-7.5,3.357-7.5,7.5v11.004    c0,4.143,3.357,7.5,7.5,7.5c4.136,0,7.5,3.364,7.5,7.5c0,4.135-3.365,7.5-7.501,7.5c-4.142,0-7.499,3.358-7.499,7.5V241    c0,4.143,3.357,7.5,7.5,7.5c4.136,0,7.5,3.364,7.5,7.5s-3.364,7.5-7.5,7.5c-4.143,0-7.5,3.357-7.5,7.5v11.002    c0,4.142,3.357,7.5,7.499,7.5c4.136,0,7.501,3.365,7.501,7.5c0,4.136-3.364,7.5-7.5,7.5c-4.143,0-7.5,3.357-7.5,7.5v11.003    c0,4.142,3.357,7.5,7.499,7.5c4.136,0,7.501,3.365,7.501,7.5c0,4.136-3.364,7.5-7.5,7.5c-4.143,0-7.5,3.357-7.5,7.5v11.003    c0,4.143,3.357,7.5,7.5,7.5c4.136,0,7.5,3.364,7.5,7.5s-3.364,7.5-7.5,7.5c-4.143,0-7.5,3.357-7.5,7.5V406    c0,4.143,3.357,7.5,7.5,7.5h497c4.143,0,7.5-3.357,7.5-7.5v-11.992c0-4.143-3.357-7.5-7.5-7.5c-4.136,0-7.5-3.364-7.5-7.5    s3.364-7.5,7.5-7.5c4.143,0,7.5-3.357,7.5-7.5v-11.003c0-4.143-3.357-7.5-7.5-7.5c-4.136,0-7.5-3.364-7.5-7.5s3.364-7.5,7.5-7.5    c4.143,0,7.5-3.357,7.5-7.5v-11.003c0-4.143-3.357-7.5-7.5-7.5c-4.136,0-7.5-3.364-7.5-7.5s3.364-7.5,7.5-7.5    c4.143,0,7.5-3.357,7.5-7.5V271c0-4.143-3.357-7.5-7.5-7.5c-4.136,0-7.5-3.364-7.5-7.5s3.364-7.5,7.5-7.5    c4.143,0,7.5-3.357,7.5-7.5v-11.002c0-4.143-3.357-7.5-7.5-7.5c-4.136,0-7.5-3.364-7.5-7.5s3.364-7.5,7.5-7.5    c4.143,0,7.5-3.357,7.5-7.5v-11.004c0-4.143-3.357-7.5-7.5-7.5c-4.136,0-7.5-3.364-7.5-7.5c0-4.136,3.364-7.5,7.5-7.5    c4.143,0,7.5-3.357,7.5-7.5v-11.002c0-4.143-3.357-7.5-7.5-7.5c-4.136,0-7.5-3.364-7.5-7.5S500.364,125.492,504.5,125.492z     M495.23,235.499C487.435,239.037,482,246.896,482,256s5.435,16.963,13.23,20.501c-7.796,3.538-13.23,11.396-13.23,20.501    c0,9.105,5.436,16.963,13.231,20.501C487.436,321.042,482,328.9,482,338.005c0,9.105,5.436,16.963,13.231,20.502    C487.436,362.045,482,369.903,482,379.008c0,8.319,4.538,15.599,11.271,19.492H18.729C25.462,394.606,30,387.327,30,379.008    c0-9.104-5.436-16.963-13.231-20.501C24.564,354.968,30,347.109,30,338.005s-5.436-16.963-13.232-20.501    C24.563,313.965,30,306.106,30,297.002c0-9.104-5.436-16.962-13.231-20.501C24.565,272.963,30,265.104,30,256    s-5.435-16.963-13.231-20.501C24.564,231.96,30,224.102,30,214.998c0-9.105-5.436-16.964-13.232-20.502    C24.564,190.958,30,183.1,30,173.994c0-9.104-5.436-16.962-13.231-20.501C24.564,149.955,30,142.097,30,132.992    c0-8.319-4.538-15.599-11.271-19.492H493.27c-6.732,3.894-11.27,11.173-11.27,19.492c0,9.104,5.435,16.963,13.23,20.501    c-7.796,3.538-13.23,11.396-13.23,20.501c0,9.105,5.436,16.964,13.232,20.502C487.436,198.034,482,205.893,482,214.998    S487.435,231.961,495.23,235.499z"/><path d="M304.841,227.548c-2.593-3.406-7.313-4.355-11.019-2.213l-81.335,46.958l62.039-52.355    c3.366-2.841,4.006-7.782,1.475-11.387c-2.531-3.605-7.396-4.683-11.211-2.477l-71.209,41.112l69.847-56.822    c3.44-2.798,4.152-7.77,1.637-11.421c-2.516-3.652-7.417-4.758-11.255-2.54L140.336,241.92l25.78-32.515    c2.537-3.198,2.442-7.748-0.225-10.839s-7.155-3.851-10.69-1.809l-36.437,21.036l9.756-24.088c1.363-3.365,0.439-7.225-2.3-9.608    c-2.739-2.382-6.688-2.766-9.834-0.948l-8.506,4.911c-4.067,2.348-5.461,7.549-3.112,11.616c0.54,0.936,1.23,1.729,2.024,2.369    l-13.076,32.286c-1.362,3.366-0.439,7.226,2.301,9.609c2.739,2.382,6.688,2.765,9.834,0.948l19.227-11.101l-25.78,32.515    c-2.537,3.198-2.442,7.749,0.226,10.839c2.666,3.09,7.154,3.851,10.689,1.809l59.854-34.557l-69.847,56.822    c-3.44,2.798-4.152,7.77-1.637,11.421c2.516,3.652,7.418,4.758,11.255,2.54l80.623-46.548l-62.037,52.354    c-3.366,2.841-4.006,7.782-1.475,11.387c1.646,2.343,4.276,3.617,6.965,3.617c1.447,0,2.911-0.369,4.246-1.141l106.529-61.504    l-41.421,40.794c-3.05,3.003-3.392,7.805-0.8,11.21c2.593,3.406,7.313,4.354,11.019,2.213l56.949-32.88    c4.067-2.348,5.461-7.549,3.112-11.616c-2.232-3.867-7.039-5.319-11.005-3.434l41.498-40.87    C307.091,235.755,307.433,230.953,304.841,227.548z"/><path d="M414.832,207.165c-7.4-7.398-18.802-8.423-27.31-3.069c-20.206-5.594-44.896,2.133-62.81,20.047    c-17.913,17.914-25.643,42.602-20.047,62.81c-5.353,8.508-4.328,19.91,3.07,27.31c4.294,4.294,9.936,6.44,15.578,6.44    c4.079-0.001,8.161-1.124,11.731-3.37c20.209,5.598,44.896-2.134,62.811-20.046v-0.001c17.913-17.914,25.643-42.602,20.047-62.81    C423.256,225.968,422.231,214.564,414.832,207.165z M402.531,235.686c5.904,15.455-0.237,35.948-15.282,50.993    c-15.043,15.045-35.532,21.187-50.992,15.281c-2.759-1.057-5.885-0.391-7.976,1.698c-2.741,2.737-7.2,2.735-9.938-0.004    c-2.739-2.738-2.74-7.195-0.004-9.937c2.088-2.091,2.753-5.214,1.698-7.976c-5.904-15.455,0.237-35.947,15.282-50.993    c11.231-11.231,25.497-17.5,38.439-17.5c4.393,0,8.636,0.723,12.553,2.219c2.759,1.057,5.884,0.391,7.977-1.699    c2.739-2.735,7.199-2.735,9.937,0.004c2.739,2.738,2.741,7.196,0.004,9.938C402.142,229.801,401.477,232.924,402.531,235.686z"/><path d="M444.82,346.439V165.39h-0.001c-0.029-3.86-1.55-7.47-4.279-10.18c-2.73-2.71-6.36-4.21-10.21-4.21H73.21    c-4.141,0-7.5,3.37-7.5,7.5c0,4.14,3.359,7.5,7.5,7.5h356.62v180H80.7V188.5c0-4.13-3.36-7.5-7.49-7.5c-4.141,0-7.5,3.37-7.5,7.5    v158c0,7.99,6.5,14.5,14.49,14.5h351.6c2.05,0,4.05-0.46,5.79-1.34c2.51-1.24,4.63-3.46,5.81-6.101    c0.94-2.09,1.41-4.35,1.42-6.899C444.831,346.54,444.831,346.47,444.82,346.439z"/></g><g transform="matrix(0.07048476487398148 0 0 0.07048476487398148 -5.000000008810616 261.9999999911894)" id="L1_3"><path d="m406.988281 42.808594c-1.390625-4.449219-5.023437-7.851563-9.550781-8.953125l-29.277344-7.121094-16.195312-23.164063c-2.621094-3.359374-6.640625-5.320312-10.898438-5.320312-4.261718 0-8.277344 1.960938-10.898437 5.320312l-16.230469 23.164063-29.277344 7.121094c-4.535156 1.101562-8.160156 4.492187-9.5625 8.949219-1.394531 4.449218-.359375 9.3125 2.734375 12.804687l18.632813 21.039063-1.570313 26.90625c-.261719 4.457031 1.730469 8.742187 5.304688 11.417968 3.570312 2.679688 8.242187 3.386719 12.445312 1.886719l28.421875-10.113281 28.425782 10.128906c4.207031 1.5 8.875.789062 12.449218-1.882812 3.566406-2.679688 5.558594-6.96875 5.304688-11.421876l-1.617188-26.90625 18.636719-21.039062c3.09375-3.492188 4.128906-8.363281 2.722656-12.816406zm-44.949219 20.296875c-2.328124 2.640625-3.515624 6.101562-3.316406 9.617187l.753906 12.320313-13.9375-4.960938c-2.890624-1.050781-6.046874-1.050781-8.941406 0l-13.933594 4.960938.746094-12.320313c.203125-3.515625-.992187-6.976562-3.3125-9.617187l-7.652344-8.628907 12.65625-3.085937c3.148438-.769531 5.902344-2.660156 7.75-5.320313l8.214844-11.683593 8.210938 11.738281c1.851562 2.65625 4.609375 4.550781 7.757812 5.324219l12.65625 3.085937zm0 0"/><path d="m676.875 246.734375-29.277344-7.121094-16.230468-23.167969c-2.621094-3.351562-6.640626-5.316406-10.898438-5.316406s-8.277344 1.964844-10.898438 5.316406l-16.234374 23.167969-29.273438 7.121094c-4.535156 1.101563-8.167969 4.492187-9.5625 8.945313-1.402344 4.457031-.359375 9.316406 2.738281 12.8125l18.621094 21.039062-1.527344 26.929688c-.253906 4.460937 1.738281 8.742187 5.304688 11.417968 3.574219 2.675782 8.242187 3.390625 12.445312 1.890625l28.429688-10.117187 28.421875 10.132812c4.203125 1.496094 8.875.785156 12.445312-1.890625 3.570313-2.671875 5.558594-6.964843 5.304688-11.417969l-1.609375-26.90625 18.628906-21.039062c3.09375-3.492188 4.128906-8.351562 2.734375-12.808594-1.398438-4.449218-5.023438-7.851562-9.5625-8.945312zm-35.398438 29.273437c-2.320312 2.648438-3.511718 6.105469-3.3125 9.621094l.75 12.320313-13.933593-4.957031c-2.894531-1.050782-6.050781-1.050782-8.941407 0l-13.9375 4.957031.753907-12.320313c.199219-3.515625-.996094-6.972656-3.316407-9.621094l-7.652343-8.621093 12.652343-3.082031c3.152344-.777344 5.910157-2.667969 7.761719-5.324219l8.210938-11.6875 8.203125 11.738281c1.855468 2.65625 4.613281 4.550781 7.761718 5.324219l12.652344 3.082031zm0 0"/><path d="m15.453125 316.460938c-.257813 4.460937 1.734375 8.742187 5.300781 11.417968 3.574219 2.675782 8.25 3.390625 12.449219 1.890625l28.425781-10.117187 28.421875 10.132812c4.203125 1.496094 8.878907.785156 12.449219-1.890625 3.570312-2.671875 5.558594-6.964843 5.300781-11.417969l-1.609375-26.90625 18.628906-21.039062c3.097657-3.492188 4.132813-8.351562 2.738282-12.808594-1.402344-4.449218-5.023438-7.851562-9.5625-8.945312l-29.273438-7.121094-16.234375-23.167969c-2.617187-3.355469-6.640625-5.3125-10.898437-5.3125-4.257813 0-8.277344 1.957031-10.902344 5.3125l-16.234375 23.167969-29.273437 7.121094c-4.53125 1.09375-8.164063 4.496094-9.566407 8.945312-1.394531 4.457032-.351562 9.316406 2.746094 12.808594l18.628906 21.039062zm30.210937-52.148438c3.144532-.765625 5.898438-2.660156 7.753907-5.324219l8.210937-11.695312 8.207032 11.738281c1.855468 2.65625 4.613281 4.550781 7.765624 5.324219l12.648438 3.082031-7.652344 8.628906c-2.328125 2.648438-3.511718 6.097656-3.3125 9.613282l.746094 12.324218-13.933594-4.964844c-2.886718-1.039062-6.054687-1.039062-8.941406 0l-13.933594 4.964844.746094-12.324218c.203125-3.515626-.984375-6.964844-3.3125-9.613282l-7.652344-8.628906zm0 0"/><path d="m633.21875 586.988281c-.082031-.078125-.109375-.191406-.203125-.269531-.089844-.078125-.546875-.421875-.8125-.648438-1.96875-1.707031-3.992187-3.3125-6.066406-4.886718-.890625-.675782-1.78125-1.332032-2.65625-2.007813-2.054688-1.464843-4.167969-2.859375-6.3125-4.195312-1.011719-.617188-2.011719-1.246094-3.035157-1.84375-2.125-1.253907-4.300781-2.429688-6.515624-3.527344-1.109376-.5625-2.226563-1.109375-3.359376-1.625-2.179687-1.011719-4.375-1.96875-6.648437-2.855469-1.335937-.496094-2.554687-.953125-3.84375-1.414062-2.15625-.761719-4.3125-1.496094-6.515625-2.132813-1.535156-.449219-3.097656-.8125-4.640625-1.191406-2.019531-.507813-3.988281-1.015625-6.074219-1.417969-2.089844-.394531-4.101562-.652344-6.15625-.929687-1.648437-.226563-3.269531-.519531-4.933594-.679688-3.792968-.371093-7.625-.582031-11.46875-.582031-3.847656 0-7.683593.210938-11.46875.582031-1.664062.160157-3.289062.453125-4.941406.679688-2.046875.277343-4.113281.546875-6.148437.929687-2.035157.390625-3.984375.910156-6.074219 1.417969-1.546875.378906-3.105469.742187-4.652344 1.191406-2.191406.636719-4.347656 1.332031-6.503906 2.132813-.773438.277344-1.574219.480468-2.324219.769531 1.738281-1.117187 3.445313-2.289063 5.132813-3.488281.910156-.648438 1.796875-1.328125 2.660156-2.011719 2.078125-1.5625 4.101562-3.175781 6.066406-4.875.269532-.226563.5625-.429687.8125-.65625.257813-.222656.121094-.1875.199219-.265625 25.753906-22.636719 40.523437-55.265625 40.523437-89.550781 0-34.292969-14.769531-66.921875-40.523437-89.558594-.078125-.078125-.101563-.183594-.199219-.261719-.089844-.082031-.542968-.425781-.8125-.660156-1.964844-1.699219-3.988281-3.304688-6.066406-4.875-.886719-.683594-1.785156-1.335938-2.660156-2.011719-2.046875-1.464843-4.167969-2.863281-6.304688-4.191406-1.011718-.625-2.011718-1.253906-3.039062-1.851563-2.125-1.246093-4.300782-2.425781-6.515625-3.527343-1.105469-.5625-2.226563-1.101563-3.355469-1.621094-2.183594-1.007813-4.375-1.96875-6.65625-2.863281-1.328125-.492188-2.550781-.941406-3.84375-1.410156-2.152344-.757813-4.308594-1.488282-6.507812-2.128907-1.546876-.449219-3.097657-.808593-4.644532-1.199219-2.019531-.503906-3.988281-1.011718-6.078125-1.40625-2.09375-.402343-4.097656-.648437-6.148437-.933593-1.648438-.222657-3.273438-.515625-4.9375-.683594-3.765625-.371094-7.59375-.578125-11.441406-.578125-3.851563 0-7.679688.207031-11.46875.578125-1.667969.167969-3.289063.460937-4.9375.683594-2.050782.285156-4.117188.542969-6.148438.933593-2.035156.386719-3.996094.902344-6.085938 1.40625-1.539062.390626-3.101562.75-4.644531 1.199219-2.191406.640625-4.347656 1.328125-6.503906 2.128907-1.332031.46875-2.582031.917968-3.859375 1.425781-2.238281.878906-4.429688 1.839843-6.652344 2.847656-1.132812.519531-2.261718 1.058594-3.382812 1.621094-2.203125 1.121093-4.378906 2.300781-6.507813 3.527343-1.019531.597657-2.019531 1.226563-3.027343 1.851563-2.144532 1.328125-4.257813 2.726563-6.3125 4.191406-.902344.648438-1.796876 1.328125-2.664063 2.011719-2.070313 1.570312-4.089844 3.175781-6.066406 4.875-.257813.234375-.550781.429688-.808594.660156-.25.222656-.125.183594-.203125.261719-11.144531 9.886719-20.359375 21.753906-27.183594 35.003906-.96875-1.863281-1.992187-3.703125-3.042968-5.515625-.597657-1.023437-1.21875-2.019531-1.855469-3.035156-1.328125-2.144531-2.660157-4.257812-4.1875-6.300781-.65625-.90625-1.328125-1.800781-2.011719-2.664063-1.566406-2.074218-3.183594-4.101562-4.878906-6.066406-.226563-.269531-.425782-.5625-.648438-.816406-.230468-.25-.183594-.101563-.246094-.183594-6.324218-7.15625-13.46875-13.539062-21.292968-19.015625l1.171875.292969c1.535156.449218 3.089843.808594 4.636719 1.199218 2.019531.484376 3.984374 1.011719 6.089843 1.40625 2.101563.402344 4.074219.648438 6.121094.933594 1.652344.222656 3.289063.515625 4.96875.683594 3.785156.371094 7.617187.585938 11.46875.585938 3.839844 0 7.660156-.214844 11.46875-.585938 1.671875-.167969 3.296875-.460938 4.960937-.683594 2.035157-.285156 4.082032-.542968 6.105469-.933594 2.023438-.386718 4.078125-.921874 6.097657-1.40625 1.5625-.390624 3.097656-.75 4.632812-1.199218 2.207031-.640625 4.367188-1.328125 6.503906-2.128906 1.332032-.46875 2.660156-.917969 3.871094-1.425782 2.238281-.875 4.433594-1.839844 6.652344-2.847656 1.136718-.519531 2.253906-1.058594 3.371094-1.621094 2.21875-1.121094 4.386718-2.289062 6.515624-3.539062 1.03125-.585938 2.03125-1.199219 3.019532-1.828125 2.144531-1.328125 4.261718-2.65625 6.328125-4.203125.90625-.648438 1.792969-1.328125 2.65625-2.011719 2.066406-1.570313 4.101562-3.175781 6.066406-4.875l.8125-.660156c.078125-.078125.121094-.183594.199219-.261719 25.753906-22.636719 40.523437-55.265625 40.523437-89.554688 0-34.285156-14.769531-66.917968-40.523437-89.554687-.078125-.078125-.121094-.1875-.199219-.265625l-.835937-.757812c-1.972657-1.703126-3.996094-3.3125-6.066407-4.886719-.890625-.671875-1.785156-1.324219-2.660156-2.007813-2.074219-1.460937-4.179687-2.859375-6.324219-4.1875-1-.628906-2.011718-1.25-3.019531-1.855468-2.144531-1.25-4.320313-2.425782-6.515625-3.523438-1.113281-.558594-2.234375-1.105469-3.359375-1.621094-2.179687-1.015625-4.378906-1.972656-6.652344-2.863281-1.332031-.496094-2.554687-.949219-3.84375-1.40625-2.152343-.761719-4.3125-1.492187-6.519531-2.132813-1.535156-.453124-3.089844-.8125-4.644531-1.195312-2.007813-.503906-3.996094-1.011719-6.066407-1.410156-2.078124-.402344-4.097656-.65625-6.167968-.933594-1.632813-.230469-3.253906-.515625-4.917969-.679688-3.765625-.359374-7.628906-.570312-11.46875-.570312-3.851563 0-7.683594.210938-11.46875.585938-1.679687.15625-3.292969.449218-4.945313.675781-2.054687.28125-4.125.542969-6.144531.929687-2.019531.390625-4.070312.910156-6.082031 1.417969-1.554688.378906-3.109375.738281-4.644531 1.1875-2.207031.640625-4.347657 1.339844-6.507813 2.132813-1.324218.464843-2.582031.921874-3.855468 1.425781-2.234376.878906-4.433594 1.835937-6.65625 2.847656-1.125.515625-2.25 1.0625-3.363282 1.625-2.210937 1.117187-4.375 2.292969-6.507812 3.527344-1.027344.59375-2.035156 1.226562-3.035156 1.84375-2.140626 1.332031-4.257813 2.730469-6.308594 4.191406-.917969.652344-1.792969 1.335937-2.660156 2.011719-2.078126 1.570312-4.113282 3.179687-6.066407 4.886718-.265625.222657-.558593.425782-.828125.648438-.261718.222656-.101562.191406-.179687.269531-25.753907 22.632813-40.523438 55.261719-40.523438 89.554688 0 34.285156 14.769531 66.910156 40.523438 89.546875.078125.085937.101562.191406.179687.269531s.5625.421875.828125.652344c1.953125 1.703125 3.988281 3.3125 6.066407 4.886719.890624.671874 1.769531 1.328124 2.660156 2.007812.402344.289062.777344.597656 1.171875.875-44.710938-13.507812-93.195313.34375-124.015625 35.433594-.070313.085937-.171875.109375-.238282.1875-.070312.078125-.425781.546875-.65625.8125-1.703124 1.976562-3.3125 3.996094-4.882812 6.066406-.675781.898438-1.328125 1.785156-2.011719 2.664062-1.476562 2.0625-2.855469 4.164063-4.203125 6.320313-.625 1-1.234375 2-1.820312 3.011719-1.253906 2.136718-2.425782 4.304687-3.539063 6.515625-.558593 1.121093-1.105469 2.25-1.625 3.382812-1.007812 2.164063-1.964843 4.363281-2.84375 6.648438-.507812 1.335937-.960937 2.574219-1.425781 3.878906-.761719 2.140625-1.492188 4.296875-2.132812 6.488281-.449219 1.542969-.808594 3.089844-1.195313 4.632813-.492187 2.035156-1.011719 3.992187-1.410156 6.09375-.394531 2.105469-.65625 4.082031-.933594 6.121093-.222656 1.644532-.515625 3.285157-.675781 4.957032-.371094 3.808594-.585938 7.628906-.585938 11.476562 0 3.84375.214844 7.667969.585938 11.472656.160156 1.675782.453125 3.3125.675781 4.960938.277344 2.039062.546875 4.082031.933594 6.117188.378906 2.042968.917969 4 1.410156 6.101562.386719 1.539062.746094 3.085938 1.195313 4.625.640624 2.199219 1.332031 4.351562 2.132812 6.496094.464844 1.332031.917969 2.660156 1.425781 3.886718.878907 2.226563 1.835938 4.417969 2.828125 6.652344.535156 1.132813 1.082032 2.265625 1.640625 3.382813 1.113281 2.210937 2.285157 4.375 3.539063 6.519531.585937 1.015625 1.195312 2.003906 1.820312 3.003906 1.328125 2.160156 2.664063 4.257813 4.203125 6.320313.652344.90625 1.335938 1.796875 2.011719 2.667969 1.570312 2.074218 3.179688 4.097656 4.882812 6.066406.230469.265625.429688.558594.65625.808594.222657.253906.179688.121093.265626.199218 7.367187 8.332032 15.847656 15.609375 25.214843 21.613282-.757812-.292969-1.558593-.496094-2.328125-.773438-2.15625-.761719-4.316406-1.492188-6.507812-2.132812-1.546875-.449219-3.097656-.808594-4.644532-1.195313-2.027343-.503906-3.992187-1.011719-6.082031-1.410156-2.089843-.394531-4.097656-.652344-6.144531-.933594-1.652344-.222656-3.277344-.515625-4.9375-.675781-3.753906-.441406-7.585938-.652344-11.429688-.652344-3.851562 0-7.683593.210938-11.46875.582031-1.664062.160157-3.289062.453125-4.941406.679688-2.050781.277343-4.113281.546875-6.148437.929687-2.035157.390625-3.988281.910156-6.078125 1.417969-1.546875.378906-3.101563.742187-4.648438 1.191406-2.191406.636719-4.347656 1.332031-6.507812 2.132813-1.324219.460937-2.582032.917968-3.855469 1.421875-2.234375.878906-4.429687 1.835937-6.65625 2.847656-1.125.515625-2.257813 1.0625-3.382813 1.625-2.199218 1.117187-4.371093 2.289063-6.5 3.527344-1.023437.597656-2.023437 1.226562-3.035156 1.84375-2.140625 1.335937-4.253906 2.660156-6.304687 4.195312-.910157.648438-1.796875 1.332031-2.660157 2.007813-2.078124 1.574218-4.101562 3.179687-6.066406 4.886718-.269531.226563-.5625.425782-.820312.648438-.25.226562-.113282.191406-.195313.269531-25.757812 22.636719-40.515625 55.265625-40.515625 89.554688 0 34.285156 14.757813 66.914062 40.515625 89.550781.082031.085938.109375.1875.195313.265625.097656.078125.550781.425781.820312.652344 1.964844 1.703125 3.988282 3.316406 6.066406 4.886719.886719.671874 1.777344 1.328124 2.660157 2.003906 2.058593 1.476562 4.164062 2.867187 6.316406 4.207031 1 .625 2 1.238281 3.007813 1.820313 2.144531 1.257812 4.316406 2.425781 6.515624 3.546874 1.125.554688 2.257813 1.101563 3.382813 1.632813 2.171875.996094 4.367187 1.953125 6.65625 2.835937 1.328125.507813 2.570313.957032 3.871094 1.421876 2.144531.757812 4.300781 1.492187 6.492187 2.132812 1.53125.445312 3.089844.808594 4.628906 1.195312 2.03125.492188 4 1.007813 6.097657 1.410157 2.101562.398437 4.089843.652343 6.125.929687 1.648437.226563 3.28125.519532 4.964843.679688 3.800782.371094 7.617188.582031 11.46875.582031 3.84375 0 7.660157-.210937 11.46875-.582031 1.671876-.160156 3.3125-.453125 4.960938-.679688 2.035156-.277344 4.085938-.546875 6.125-.929687 2.035156-.386719 4.070312-.917969 6.09375-1.410157 1.539062-.386718 3.097656-.75 4.625-1.195312 2.203125-.640625 4.359375-1.335938 6.496094-2.132812 1.332031-.464844 2.660156-.914063 3.875-1.421876 2.234375-.882812 4.429687-1.839843 6.652344-2.851562 1.132812-.515625 2.265624-1.0625 3.378906-1.617188 2.207031-1.121093 4.378906-2.289062 6.523437-3.546874 1.011719-.582032 2.003907-1.195313 3-1.820313 2.160157-1.324219 4.261719-2.730469 6.328125-4.207031.90625-.648438 1.792969-1.332032 2.65625-2.003906 2.082032-1.570313 4.101563-3.183594 6.066406-4.886719.269532-.226563.5625-.429688.8125-.652344.257813-.226563.121094-.179687.203126-.265625 11.136718-9.867188 20.363281-21.707031 27.183593-34.933594.976563 1.878906 1.996094 3.699219 3.0625 5.527344.589844 1.011719 1.195313 2.007812 1.824219 3.003906 1.328125 2.15625 2.660156 4.257813 4.203125 6.320313.652344.910156 1.332031 1.800781 2.011719 2.664062 1.570312 2.074219 3.179687 4.101563 4.882812 6.066407.226563.269531.425782.5625.65625.8125.222656.253906.179688.121093.257813.199218 22.640625 25.753906 55.265625 40.515625 89.554687 40.515625 34.285156 0 66.921875-14.761719 89.558594-40.515625.078125-.078125.183594-.101562.261719-.199218.082031-.09375.429687-.542969.652343-.8125 1.703126-1.964844 3.316407-3.992188 4.886719-6.066407.679688-.886719 1.328125-1.785156 2.011719-2.664062 1.472656-2.042969 2.855469-4.164063 4.191406-6.300781.640625-1.015626 1.246094-2.011719 1.84375-3.035157 1.054688-1.816406 2.074219-3.648437 3.050782-5.515625 6.828124 13.226563 16.058593 25.078125 27.210937 34.933594.082031.085938.105469.1875.203125.265625.089844.078125.542969.425781.808594.652344 1.96875 1.703125 3.988281 3.316406 6.066406 4.886719.890625.671874 1.78125 1.328124 2.660156 2.003906 2.066406 1.476562 4.167969 2.867187 6.328125 4.207031.992188.625 1.988281 1.238281 3 1.820313 2.140625 1.257812 4.3125 2.425781 6.523438 3.546874 1.113281.554688 2.246093 1.101563 3.378906 1.632813 2.171875.996094 4.363281 1.953125 6.652344 2.835937 1.328125.507813 2.570312.957032 3.875 1.421876 2.136719.757812 4.292969 1.492187 6.496093 2.132812 1.527344.445312 3.082032.808594 4.625 1.195312 2.023438.492188 3.992188 1.007813 6.09375 1.410157 2.105469.398437 4.085938.652343 6.121094.929687 1.652344.226563 3.292969.519532 4.964844.679688 3.808594.371094 7.625.582031 11.46875.582031 3.851562 0 7.667969-.210937 11.46875-.582031 1.683594-.160156 3.316406-.453125 4.964844-.679688 2.035156-.277344 4.089844-.546875 6.125-.929687 2.035156-.386719 4.066406-.917969 6.09375-1.410157 1.542968-.386718 3.101562-.75 4.632812-1.195312 2.191406-.640625 4.347656-1.335938 6.492188-2.132812 1.328125-.464844 2.660156-.914063 3.871094-1.421876 2.234374-.882812 4.429687-1.839843 6.65625-2.851562 1.125-.515625 2.257812-1.0625 3.382812-1.617188 2.199219-1.121093 4.371094-2.289062 6.511719-3.546874 1.011719-.582032 2.011719-1.195313 3.011719-1.820313 2.152343-1.324219 4.257812-2.730469 6.316406-4.207031.90625-.648438 1.796875-1.332032 2.660156-2.003906 2.078125-1.570313 4.097656-3.183594 6.066406-4.886719.269532-.226563.5625-.429688.820313-.652344.25-.226563.113281-.179687.195312-.265625 25.757813-22.636719 40.515625-55.265625 40.515625-89.550781 0-34.289063-14.757812-66.917969-40.515625-89.554688zm-478.441406-75.582031-.347656-.574219c-4.007813-6.796875-7.140626-14.070312-9.3125-21.652343-.191407-.648438-.335938-1.328126-.507813-1.976563-.804687-3.074219-1.449219-6.179687-1.933594-9.316406-.144531-.917969-.300781-1.839844-.421875-2.773438-1.050781-7.636719-1.050781-15.378906 0-23.015625.121094-.933594.277344-1.855468.421875-2.765625.484375-3.140625 1.128907-6.253906 1.933594-9.3125.171875-.675781.316406-1.339843.507813-1.988281 2.171874-7.582031 5.304687-14.863281 9.3125-21.660156l.347656-.503906c17.703125 29.382812 17.703125 66.148437 0 95.539062zm446.425781 85 .542969.289062c-29.507813 17.277344-66.039063 17.277344-95.542969 0l.535156-.3125c29.242188-16.855468 65.257813-16.851562 94.492188.023438zm-200.9375-212.902344c29.238281-16.863281 65.246094-16.863281 94.476563 0l.550781.292969c-29.507813 17.269531-66.035157 17.269531-95.542969 0zm-32.585937 66.828125h-12.238282c2.621094-18.191406 10.589844-35.179687 22.886719-48.824219 41.378906 29.609376 97.007813 29.609376 138.386719 0 12.304687 13.644532 20.269531 30.632813 22.894531 48.824219h-12.246094c-7.351562 0-13.308593 5.953125-13.308593 13.304688 0 7.347656 5.957031 13.308593 13.308593 13.308593h12.246094c-2.625 18.179688-10.589844 35.175782-22.894531 48.816407-41.378906-29.613281-97.007813-29.613281-138.386719 0-12.296875-13.640625-20.265625-30.636719-22.886719-48.816407h12.238282c7.351562 0 13.308593-5.960937 13.308593-13.308593 0-7.351563-5.957031-13.304688-13.308593-13.304688zm127.613281 93.140625-.53125.324219c-29.238281 16.855469-65.242188 16.855469-94.480469 0l-.53125-.324219c29.507812-17.269531 66.035156-17.269531 95.542969 0zm-163.3125-10.339844c1.476562-2.046874 2.859375-4.164062 4.1875-6.3125.636719-1.007812 1.257812-2 1.855469-3.027343 1.050781-1.8125 2.074218-3.640625 3.042968-5.507813 6.832032 13.222656 16.0625 25.070313 27.214844 34.925782.082031.085937.105469.191406.195312.269531.097657.078125.550782.429687.820313.652343 1.964844 1.703126 3.984375 3.3125 6.066406 4.886719.886719.671875 1.78125 1.328125 2.660157 2.007813 1.792968 1.328125 3.628906 2.515625 5.503906 3.710937-27.335938-10.574219-57.632813-10.574219-84.972656 0 9.511718-6.042969 18.121093-13.398437 25.59375-21.839843.078124-.078126.179687-.101563.257812-.195313.082031-.097656.429688-.546875.652344-.816406 1.703125-1.964844 3.316406-3.984375 4.886718-6.066407.707032-.921874 1.378907-1.808593 2.035157-2.710937zm-17.527344-117.265624.347656.554687c4.007813 6.792969 7.140625 14.074219 9.3125 21.664063.191407.652343.335938 1.328124.507813 1.980468.808594 3.070313 1.449218 6.179688 1.929687 9.3125.148438.917969.304688 1.839844.425781 2.773438 1.050782 7.636718 1.050782 15.378906 0 23.019531-.121093.929687-.277343 1.851563-.425781 2.761719-.480469 3.140625-1.121093 6.253906-1.929687 9.324218-.171875.664063-.316406 1.324219-.507813 1.976563-2.171875 7.59375-5.304687 14.871094-9.3125 21.667969l-.347656.503906c-17.707031-29.390625-17.707031-66.15625 0-95.539062zm70.167969-85.003907c-29.234375 16.855469-65.238282 16.855469-94.476563 0l-.5625-.292969c29.507813-17.277343 66.039063-17.277343 95.539063 0zm-94.476563-160.269531c29.238281-16.863281 65.242188-16.863281 94.476563 0l.535156.320312c-29.507812 17.269532-66.035156 17.269532-95.542969 0zm-21.984375 142.261719c-12.308594-13.636719-20.28125-30.636719-22.894531-48.820313h12.234375c7.355469 0 13.308594-5.960937 13.308594-13.304687 0-7.355469-5.953125-13.308594-13.308594-13.308594h-12.234375c2.609375-18.183594 10.578125-35.179687 22.882813-48.824219 41.375 29.609375 97.007812 29.609375 138.390624 0 12.292969 13.644532 20.269532 30.640625 22.898438 48.824219h-12.242188c-7.347656 0-13.308593 5.953125-13.308593 13.308594 0 7.34375 5.960937 13.304687 13.308593 13.304687h12.242188c-2.625 18.179688-10.589844 35.167969-22.890625 48.820313-41.371094-29.609375-97.007813-29.609375-138.386719 0zm-95.679687 81.585937c13.652343-12.304687 30.640625-20.269531 48.832031-22.890625v12.246094c0 7.34375 5.957031 13.304687 13.300781 13.304687 7.351563 0 13.3125-5.960937 13.3125-13.304687v-12.246094c18.183594 2.621094 35.175781 10.585938 48.820313 22.890625-29.617188 41.371094-29.617188 97.011719 0 138.386719-13.644532 12.300781-30.636719 20.269531-48.820313 22.886719v-12.242188c0-7.347656-5.960937-13.300781-13.3125-13.300781-7.34375 0-13.300781 5.953125-13.300781 13.300781v12.242188c-18.191406-2.617188-35.179688-10.585938-48.832031-22.886719 29.621093-41.375 29.621093-97.015625 0-138.386719zm-91.554688 201.964844c29.234375-16.859375 65.234375-16.859375 94.476563 0l.53125.289062c-29.507813 17.277344-66.039063 17.277344-95.546875 0zm94.476563 160.269531c-29.242188 16.859375-65.242188 16.859375-94.476563 0l-.539062-.292969c29.507812-17.277343 66.039062-17.277343 95.546875 0zm32.597656-66.828125h12.246094c-2.621094 18.179688-10.589844 35.175782-22.894532 48.820313-41.375-29.609375-97.007812-29.609375-138.382812 0-12.300781-13.644531-20.269531-30.640625-22.890625-48.820313h12.246094c7.34375 0 13.304687-5.957031 13.304687-13.304687 0-7.355469-5.960937-13.308594-13.304687-13.308594h-12.246094c2.621094-18.183594 10.589844-35.175781 22.890625-48.824219 41.375 29.609375 97.007812 29.609375 138.382812 0 12.304688 13.648438 20.273438 30.640625 22.894532 48.824219h-12.246094c-7.347656 0-13.308594 5.953125-13.308594 13.308594 0 7.347656 5.960938 13.304687 13.308594 13.304687zm53.226562 34.460938-.34375-.570313c-4.007812-6.792969-7.140624-14.066406-9.316406-21.648437-.183594-.652344-.328125-1.328125-.503906-1.988282-.804688-3.058593-1.449219-6.171874-1.933594-9.3125-.144531-.910156-.300781-1.832031-.425781-2.765624-1.042969-7.636719-1.042969-15.378907 0-23.015626.125-.933593.28125-1.855468.425781-2.773437.484375-3.136719 1.128906-6.242187 1.933594-9.3125.175781-.667969.320312-1.332031.503906-1.980469 2.175782-7.589844 5.308594-14.871094 9.316406-21.667968l.34375-.503907c17.707032 29.386719 17.707032 66.15625 0 95.539063zm-9.765624-126.992188c0 .078125-.175782.101563-.242188.183594-.0625.078125-.425781.542969-.648438.8125-1.699218 1.964844-3.316406 3.992188-4.882812 6.066406-.683594.890625-1.332031 1.785156-2.007812 2.664063-1.480469 2.058593-2.863282 4.160156-4.207032 6.3125-.625 1.003906-1.242187 1.996093-1.820312 3.011719-1.070313 1.820312-2.09375 3.648437-3.0625 5.527343-6.832032-13.226562-16.0625-25.078125-27.21875-34.9375-.078125-.078125-.101563-.183593-.195313-.261719-.089843-.078124-.546875-.425781-.8125-.648437-1.96875-1.707031-3.988281-3.316406-6.066406-4.886719-.890625-.675781-1.789063-1.335937-2.660156-2.011718-1.796875-1.324219-3.632813-2.515626-5.511719-3.707032 27.339844 10.570313 57.640625 10.570313 84.980469 0-9.519531 6.054688-18.140625 13.421875-25.617188 21.875zm151.738281 148.417969c-13.644531 12.304687-30.636719 20.261719-48.824219 22.890625v-12.242188c0-7.355468-5.957031-13.3125-13.308594-13.3125-7.34375 0-13.304687 5.957032-13.304687 13.3125v12.242188c-18.183594-2.628906-35.175781-10.585938-48.824219-22.890625 29.609375-41.375 29.609375-97.007813 0-138.390625 13.648438-12.296875 30.640625-20.261719 48.824219-22.882812v12.234374c0 7.355469 5.960937 13.3125 13.304687 13.3125 7.351563 0 13.308594-5.957031 13.308594-13.3125v-12.234374c18.1875 2.621093 35.179688 10.585937 48.824219 22.882812-29.617188 41.382812-29.617188 97.015625 0 138.390625zm30.230469-57.6875c-.121094.933594-.277344 1.855469-.425782 2.773437-.476562 3.136719-1.121094 6.246094-1.933594 9.316407-.167968.664062-.316406 1.328125-.503906 1.976562-2.171875 7.589844-5.300781 14.871094-9.3125 21.667969l-.34375.527344c-17.707031-29.382813-17.707031-66.152344 0-95.539063l.34375.5625c4.011719 6.792969 7.140625 14.074219 9.3125 21.660157.1875.648437.335938 1.332031.503906 1.984374.8125 3.070313 1.457032 6.171876 1.933594 9.3125.148438.921876.304688 1.835938.425782 2.765626 1.050781 7.640624 1.050781 15.382812 0 23.027343zm11.042968-71.640625c-.597656-1.019531-1.203125-2.019531-1.84375-3.03125-1.335937-2.144531-2.664062-4.257812-4.191406-6.308594-.65625-.902344-1.332031-1.796875-2.011719-2.664062-1.570312-2.070313-3.183593-4.101563-4.886719-6.066406-.222656-.269532-.421874-.5625-.652343-.8125-.222657-.253907-.164063-.105469-.234375-.183594-7.394532-8.339844-15.898438-15.613282-25.285156-21.625.769531.296875 1.570312.492187 2.335937.769531 2.144531.761719 4.300781 1.496094 6.503906 2.132813 1.527344.449218 3.078125.8125 4.625 1.195312 2.027344.496094 3.992188 1.011719 6.097657 1.410156 2.097656.398438 4.082031.65625 6.117187.933594 1.652344.226562 3.289063.519531 4.964844.679688 3.804687.371093 7.628906.585937 11.46875.585937 3.84375 0 7.660156-.214844 11.46875-.585937 1.679687-.160157 3.3125-.453126 4.96875-.679688 2.035156-.277344 4.085937-.546875 6.121093-.933594 2.035157-.390625 4.070313-.914062 6.089844-1.410156 1.546875-.382812 3.097656-.746094 4.636719-1.195312 2.191406-.636719 4.347656-1.332032 6.492187-2.132813.777344-.277344 1.585938-.472656 2.339844-.769531-1.742187 1.117187-3.449218 2.277344-5.132812 3.488281-.910156.648437-1.800782 1.328125-2.664063 2.011719-2.074219 1.566406-4.101562 3.175781-6.066406 4.878906-.269531.230469-.5625.425781-.8125.648438-.253906.234374-.121094.191406-.199219.269531-11.152344 9.875-20.375 21.734375-27.199218 34.96875-.976563-1.925781-1.996094-3.761719-3.050782-5.574219zm156.742188 140.269531c-29.238282 16.859375-65.242188 16.859375-94.476563 0l-.535156-.292969c29.503906-17.277343 66.035156-17.277343 95.542969 0zm32.601562-66.828125h12.242188c-2.617188 18.179688-10.589844 35.175782-22.890625 48.820313-41.375-29.609375-97.011719-29.609375-138.390625 0-12.292969-13.644531-20.265625-30.640625-22.886719-48.820313h12.246094c7.34375 0 13.304687-5.957031 13.304687-13.304687 0-7.355469-5.960937-13.308594-13.304687-13.308594h-12.246094c2.621094-18.183594 10.59375-35.175781 22.886719-48.824219 41.378906 29.609375 97.015625 29.609375 138.390625 0 12.300781 13.648438 20.273437 30.640625 22.890625 48.824219h-12.242188c-7.347656 0-13.304687 5.953125-13.304687 13.308594 0 7.347656 5.957031 13.304687 13.304687 13.304687zm0 0"/></g><g transform="matrix(0.11015678197145462 0 0 0.11015678197145462 50.23334210994824 41.8633582320781)" id="L1_4"><path d="m203 88.886719c0-15.464844-12.535156-28-28-28h-147c-15.464844 0-28 12.535156-28 28v147c0 15.460937 12.535156 28 28 28h147c15.464844 0 28-12.539063 28-28zm-16 147c0 6.625-5.371094 12-12 12h-147c-6.628906 0-12-5.375-12-12v-147c0-6.628907 5.371094-12 12-12h147c6.628906 0 12 5.371093 12 12zm0 0"/><path d="m101.632812 189.199219c14.957032 0 27.085938-12.125 27.085938-27.085938 0-14.960937-12.128906-27.085937-27.085938-27.085937-14.960937 0-27.085937 12.125-27.085937 27.085937.015625 14.953125 12.132813 27.070313 27.085937 27.085938zm0-38.171875c6.121094 0 11.085938 4.964844 11.085938 11.085937 0 6.125-4.964844 11.085938-11.089844 11.085938-6.121094 0-11.085937-4.964844-11.082031-11.085938.007813-6.117187 4.964844-11.078125 11.085937-11.085937zm0 0"/><path d="m50.734375 138.304688c14.960937 0 27.085937-12.128907 27.085937-27.085938 0-14.960938-12.125-27.085938-27.085937-27.085938-14.957031 0-27.085937 12.125-27.085937 27.085938.019531 14.953125 12.136718 27.070312 27.085937 27.085938zm0-38.171876c6.125 0 11.085937 4.964844 11.085937 11.085938 0 6.125-4.960937 11.085938-11.085937 11.085938-6.121094 0-11.085937-4.964844-11.085937-11.085938.011718-6.121094 4.96875-11.078125 11.085937-11.085938zm0 0"/><path d="m152.527344 240.09375c14.957031 0 27.082031-12.128906 27.082031-27.085938 0-14.957031-12.125-27.085937-27.085937-27.085937-14.957032 0-27.082032 12.128906-27.082032 27.085937.015625 14.953126 12.132813 27.070313 27.085938 27.085938zm0-38.171875c6.121094.003906 11.082031 4.964844 11.082031 11.085937 0 6.125-4.960937 11.085938-11.085937 11.085938-6.121094 0-11.082032-4.964844-11.082032-11.085938.007813-6.117187 4.964844-11.078124 11.085938-11.085937zm0 0"/><path d="m408.40625 14.308594c-7.574219-13.476563-24.625-18.277344-38.117188-10.730469l-128.503906 72.042969c-13.472656 7.574218-18.273437 24.625-10.730468 38.117187l72.042968 128.5c3.617188 6.492188 9.679688 11.265625 16.835938 13.257813 2.484375.703125 5.050781 1.058594 7.628906 1.0625 4.785156-.003906 9.484375-1.242188 13.652344-3.589844l128.5-72.046875c13.488281-7.5625 18.292968-24.625 10.730468-38.113281zm59.171875 145.449218c-.855469 3.066407-2.902344 5.664063-5.683594 7.214844l-128.5 72.042969c-5.78125 3.242187-13.09375 1.179687-16.335937-4.601563l-72.042969-128.5c-3.234375-5.78125-1.175781-13.089843 4.597656-16.335937l128.5-72.042969c5.785157-3.234375 13.09375-1.175781 16.335938 4.601563l72.046875 128.5c1.5625 2.773437 1.953125 6.054687 1.082031 9.121093zm0 0"/><path d="m310.101562 95.523438c-6.320312-11.273438-19.722656-16.511719-32.011718-12.511719-12.289063 4-20.039063 16.121093-18.515625 28.953125 1.523437 12.832031 11.902343 22.800781 24.785156 23.808594 12.882813 1.007812 24.683594-7.226563 28.1875-19.664063 1.96875-6.914063 1.085937-14.328125-2.445313-20.585937zm-18.203124 22.914062c-5.339844 2.996094-12.09375 1.09375-15.089844-4.246094-2.992188-5.339844-1.089844-12.097656 4.25-15.089844 5.339844-2.996093 12.09375-1.09375 15.089844 4.246094 2.984374 5.34375 1.078124 12.09375-4.257813 15.089844zm0 0"/><path d="m448.660156 134.535156c-7.316406-13.042968-23.816406-17.683594-36.859375-10.371094s-17.6875 23.816407-10.375 36.859376c7.3125 13.042968 23.808594 17.691406 36.855469 10.382812 6.304688-3.476562 10.949219-9.335938 12.902344-16.265625 1.949218-6.929687 1.042968-14.351563-2.523438-20.605469zm-18.199218 22.914063c-5.339844 2.992187-12.09375 1.089843-15.089844-4.25-2.992188-5.339844-1.089844-12.09375 4.25-15.085938 5.339844-2.996093 12.09375-1.09375 15.089844 4.246094 2.984374 5.339844 1.082031 12.089844-4.253907 15.089844zm0 0"/><path d="m398.882812 45.746094c-5.996093-10.691406-18.421874-16.027344-30.304687-13.003906-11.878906 3.023437-20.246094 13.648437-20.402344 25.90625-.152343 12.257812 7.941407 23.09375 19.742188 26.414062 2.402343.679688 4.886719 1.023438 7.382812 1.023438 9.605469-.027344 18.480469-5.132813 23.332031-13.425782 4.847657-8.292968 4.945313-18.535156.253907-26.917968zm-18.203124 22.914062c-5.339844 2.992188-12.097657 1.089844-15.089844-4.25-2.992188-5.339844-1.089844-12.09375 4.25-15.085937 5.339844-2.996094 12.09375-1.09375 15.085937 4.246093 2.984375 5.339844 1.085938 12.089844-4.246093 15.089844zm0 0"/><path d="m323 173.929688c-9.558594 5.359374-14.945312 15.945312-13.65625 26.824218 1.292969 10.878906 9.011719 19.90625 19.554688 22.878906 2.402343.675782 4.886718 1.023438 7.382812 1.023438 11.339844-.015625 21.472656-7.09375 25.386719-17.738281 3.914062-10.644531.78125-22.601563-7.84375-29.960938-8.628907-7.363281-20.929688-8.570312-30.824219-3.027343zm18.664062 33.300781c-5.339843 2.992187-12.09375 1.089843-15.085937-4.25-2.996094-5.339844-1.09375-12.09375 4.246094-15.089844 5.339843-2.992187 12.097656-1.089844 15.089843 4.25 1.453126 2.558594 1.824219 5.59375 1.027344 8.429687-.800781 2.832032-2.699218 5.230469-5.273437 6.65625zm0 0"/></g><g transform="matrix(0.0910055596139575 0.048752979723138974 -0.048752979723138974 0.0910055596139575 181.1574260013799 282.55300697105713)" id="L1_5"><path d="m7.929688 426.261719h339.410156c2.09375-.027344 4.089844-.902344 5.53125-2.417969 1.441406-1.519531 2.207031-3.554688 2.128906-5.648438v-112.933593h69.5625c4.574219-.125 8.261719-3.777344 8.4375-8.34375v-105.449219c-.1875-4.542969-3.890625-8.144531-8.4375-8.207031h-11.5625v-88.597657c18.949219-3.101562 32.519531-19.984374 31.46875-39.15625-1.050781-19.171874-16.382812-34.472656-35.558594-35.484374-19.175781-1.007813-36.027344 12.59375-39.089844 31.550781-3.058593 18.957031 8.660157 37.171875 27.179688 42.246093v89.441407h-42v-141.140625c.054688-11.109375-4.332031-21.777344-12.179688-29.636719-7.847656-7.859375-18.511718-12.261719-29.621093-12.222656h-271.132813c-11.136718-.046875-21.832031 4.339843-29.726562 12.195312-7.890625 7.851563-12.3320315 18.527344-12.339844 29.664063v376.074218c-.0351562 4.417969 3.511719 8.027344 7.929688 8.066407zm377.410156-368.691407c.003906-11.921874 9.667968-21.582031 21.589844-21.582031 11.921874.003907 21.585937 9.667969 21.582031 21.589844 0 11.921875-9.664063 21.585937-21.585938 21.585937-11.917969-.015624-21.574219-9.675781-21.585937-21.59375zm31.660156 141.691407v90h-62v-90zm-401-157.140625c.003906-6.894532 2.757812-13.5 7.648438-18.355469 4.894531-4.855469 11.523437-7.554687 18.417968-7.503906h271.132813c6.867187-.042969 13.460937 2.667969 18.3125 7.53125 4.847656 4.859375 7.546875 11.460937 7.488281 18.328125v368.140625h-323zm0 0"/><path d="m312 155.261719c0-4.417969-3.582031-8-8-8h-252c-4.417969 0-8 3.582031-8 8v128c0 4.417969 3.582031 8 8 8h252c4.417969 0 8-3.582031 8-8zm-16 119h-236v-111h236zm0 0"/><path d="m156.386719 210.460938c5.144531 0 9.613281-2.730469 9.613281-5.960938v-7.238281h19v7.441406l-27.804688 48.371094c-.550781.976562-.828124 2.082031-.800781 3.199219 0 5.59375 6.230469 9.492187 11.800781 9.492187 2.714844 0 4.511719-.871094 5.464844-2.660156l26.632813-50.976563c.871093-1.628906 3.707031-7.234375 3.707031-11.046875v-14.21875c0-3.070312-4.636719-5.597656-8.234375-5.597656h-40.398437c-4.15625 0-8.367188 2.585937-8.367188 5.597656v17.636719c0 3.339844 4.191406 5.960938 9.386719 5.960938zm0 0"/><path d="m77.886719 210.460938c5.144531 0 9.113281-2.730469 9.113281-5.960938v-7.238281h20v7.441406l-28.066406 48.371094c-.585938.964843-.90625 2.070312-.925782 3.199219 0 5.59375 6.167969 9.492187 11.734376 9.492187 2.714843 0 4.476562-.871094 5.433593-2.660156l26.375-50.976563c.867188-1.628906 3.449219-7.234375 3.449219-11.046875v-14.21875c0-3.070312-4.15625-5.597656-7.75-5.597656h-40.402344c-4.15625 0-7.847656 2.585937-7.847656 5.597656v17.636719c0 3.339844 3.691406 5.960938 8.886719 5.960938zm0 0"/><path d="m239.386719 210.460938c5.144531 0 9.613281-2.730469 9.613281-5.960938v-7.238281h19v7.441406l-27.773438 48.371094c-.542968.976562-.8125 2.082031-.777343 3.199219 0 5.59375 6.238281 9.492187 11.804687 9.492187 2.714844 0 4.515625-.871094 5.46875-2.660156l26.601563-50.976563c.867187-1.628906 3.675781-7.234375 3.675781-11.046875v-14.21875c0-3.070312-4.570312-5.597656-8.167969-5.597656h-40.398437c-4.160156 0-8.4375 2.585937-8.4375 5.597656v17.636719c.003906 3.339844 4.195312 5.960938 9.390625 5.960938zm0 0"/><path d="m312 327.261719c0-4.417969-3.582031-8-8-8h-252c-4.417969 0-8 3.582031-8 8v46c0 4.417969 3.582031 8 8 8h252c4.417969 0 8-3.582031 8-8zm-16 37h-236v-29h236zm0 0"/><path d="m312 65.261719c0-4.417969-3.582031-8-8-8h-252c-4.417969 0-8 3.582031-8 8v46c0 4.417969 3.582031 8 8 8h252c4.417969 0 8-3.582031 8-8zm-16 37h-236v-29h236zm0 0"/></g><g transform="matrix(0.1226973276847748 -0.02202259631177965 0.02202259631177965 0.1226973276847748 242.43688211448898 238.66211702553642)" id="L1_6"><path d="m336.894531 325.023438-51.019531 35.621093c-10.394531-12.949219-26.84375-19.46875-43.289062-17.148437l-52.027344 7.367187c-8.132813 1.140625-16.417969.4375-24.242188-2.058593l-5.734375-1.835938c-29.179687-9.417969-61.109375-4.175781-85.746093 14.082031l-1.523438-10.773437c-.617188-4.371094-4.667969-7.417969-9.042969-6.796875l-57.050781 8.074219c-4.375.617187-7.421875 4.667968-6.800781 9.042968l17.722656 125.199219c.554687 3.941406 3.925781 6.875 7.910156 6.878906.378907 0 .753907-.027343 1.128907-.078125l57.054687-8.078125c4.375-.617187 7.417969-4.664062 6.800781-9.039062l-.789062-5.570313 13.074218-10.140625c5.113282-3.976562 11.570313-5.8125 18.007813-5.125l92.292969 9.777344c.175781.019531.355468.03125.53125.039063 20.832031.757812 41.359375-5.164063 58.585937-16.898438.308594-.214844.605469-.453125.886719-.707031l113.707031-104.304688c3.117188-2.863281 3.46875-7.65625.800781-10.941406-12.582031-15.519531-35.140624-18.421875-51.238281-6.585937zm-304.035156 150.613281-15.476563-109.359375 41.210938-5.839844 15.476562 109.359375zm230.378906-40.960938c-14.21875 9.550781-31.085937 14.382813-48.207031 13.808594l-92.015625-9.746094c-10.550781-1.136719-21.128906 1.871094-29.5 8.390625l-5.851563 4.539063-10.199218-72.046875c20.992187-19.5625 50.929687-26.226563 78.238281-17.410156l5.730469 1.835937c10.125 3.226563 20.84375 4.136719 31.363281 2.660156l52.035156-7.367187c13.9375-1.957032 27.449219 5.683594 32.960938 18.632812l-76.570313 10.839844c-2.855468.367188-5.292968 2.246094-6.382812 4.914062-1.085938 2.667969-.65625 5.714844 1.128906 7.972657 1.785156 2.261719 4.648438 3.390625 7.496094 2.953125l85.523437-12.105469c4.375-.617187 7.421875-4.667969 6.800781-9.042969-.425781-2.988281-1.136718-5.929687-2.125-8.785156l52.46875-36.632812c.054688-.039063.113282-.078126.167969-.121094 6.933594-5.128906 16.261719-5.605469 23.683594-1.214844zm0 0"/><path d="m224.214844 328.691406c90.621094 0 164.347656-73.722656 164.347656-164.34375s-73.730469-164.347656-164.347656-164.347656c-90.617188 0-164.347656 73.726562-164.347656 164.347656 0 90.617188 73.726562 164.34375 164.347656 164.34375zm-114.03125-156.351562c1.714844 24.746094 11.46875 48.253906 27.777344 66.945312l-24.09375 24.09375c-22.644532-25.125-35.980469-57.261718-37.78125-91.039062zm18.324218 99.027344 20.765626-20.765626c18.671874 16.285157 42.144531 26.035157 66.859374 27.769532v34.101562c-33.746093-1.820312-65.847656-15.152344-90.953124-37.777344zm103.625 7.015624c24.933594-1.714843 48.613282-11.589843 67.378907-28.101562l24.09375 24.097656c-25.199219 22.847656-57.507813 36.308594-91.472657 38.101563zm78.648438-39.457031c16.121094-18.636719 25.757812-42.003906 27.464844-66.585937h34.101562c-1.792968 33.613281-15.011718 65.605468-37.464844 90.683594zm27.464844-82.585937c-1.722656-24.742188-11.472656-48.246094-27.777344-66.933594l24.09375-24.09375c22.640625 25.125 35.976562 57.253906 37.78125 91.027344zm-39.089844-78.246094c-18.714844-16.324219-42.25-26.082031-67.023438-27.785156v-34.097656c33.804688 1.785156 65.96875 15.125 91.113282 37.785156zm-83.023438-27.773438c-24.554687 1.722657-47.886718 11.359376-66.5 27.460938l-24.101562-24.101562c25.058594-22.433594 57.019531-35.648438 90.601562-37.457032zm8.082032 15.710938c54.296875 0 98.316406 44.015625 98.316406 98.316406 0 54.296875-44.019531 98.3125-98.316406 98.3125s-98.316406-44.015625-98.316406-98.3125c.0625-54.273437 44.042968-98.257812 98.316406-98.316406zm-110.03125-1.074219 24.09375 24.09375c-16.488282 18.742188-26.359375 42.382813-28.09375 67.289063h-34.101563c1.816407-33.9375 15.269531-66.210938 38.101563-91.382813zm0 0"/><path d="m219.832031 222.644531c.136719.050781.273438.097657.414063.148438 2.5625.933593 5.371094.933593 7.933594 0 .160156-.054688.3125-.109375.46875-.171875 48.609374-19.691406 64.980468-56.257813 59.640624-83.761719l-.011718-.054687c-4.082032-20.238282-18.898438-33.316407-37.742188-33.316407-8.480468 0-17.464844 2.824219-26.25 8.207031-8.890625-5.636718-17.800781-8.492187-26.539062-8.492187-18.96875 0-33.734375 13.226563-37.613282 33.675781-5.335937 27.785156 11.054688 64.464844 59.699219 83.765625zm-43.984375-80.769531c2.421875-12.75 10.808594-20.671875 21.902344-20.671875 6.667969 0 14.167969 2.960937 21.683594 8.570313 2.804687 2.09375 6.648437 2.117187 9.480468.0625 7.414063-5.382813 15.097657-8.347657 21.625-8.347657 11.050782 0 19.5 7.835938 22.050782 20.449219 4.019531 20.789062-9.429688 48.84375-48.390625 65.210938-38.960938-16.039063-52.394531-44.210938-48.355469-65.273438zm0 0"/></g><g transform="matrix(0.08905165791048966 0.024565974233990116 -0.024565974233990116 0.08905165791048966 20.229903288124838 110.24160721777902)" id="L1_7"><path d="m286.8125 244.472656 3.355469 7.726563c.332031.753906.332031 1.613281 0 2.363281l-3.355469 7.730469c-3.09375 7.089843-1.558594 15.351562 3.871094 20.859375 5.53125 5.664062 13.953125 7.394531 21.269531 4.367187l36.347656-14.882812c.945313 20.28125 4.984375 43.648437 20.019531 56.640625 1.476563 1.191406 3.335938 1.804687 5.234376 1.722656h17.546874c3.308594.105469 6.320313-1.902344 7.5-4.996094 1.179688-3.09375.265626-6.597656-2.273437-8.722656-10.511719-9.085938-20.007813-27.265625-23.609375-43.664062l33.828125 13.875c2.355469.972656 4.875 1.476562 7.425781 1.480468 5.210938.003906 10.203125-2.097656 13.839844-5.828125 5.433594-5.507812 6.96875-13.765625 3.875-20.855469l-3.359375-7.726562c-.328125-.753906-.328125-1.609375 0-2.363281l3.359375-7.726563c3.09375-7.089844 1.558594-15.351562-3.875-20.859375-5.53125-5.667969-13.949219-7.394531-21.265625-4.367187-.117187.046875-.234375.097656-.347656.148437l-22.332031 10.402344 9.957031-22.738281c3.03125-7.121094 1.425781-15.363282-4.050781-20.828125-5.578126-5.617188-14.015626-7.277344-21.304688-4.1875l-7.867188 3.300781c-.863281.359375-1.835937.359375-2.699218 0l-7.867188-3.300781c-7.289062-3.085938-15.722656-1.425781-21.296875 4.191406-5.496093 5.488281-7.089843 13.773437-4.015625 20.910156l9.917969 22.652344-22.332031-10.398437c-.113282-.054688-.230469-.101563-.347656-.152344-7.3125-3.027344-15.734376-1.296875-21.265626 4.367187-5.4375 5.503907-6.972656 13.765625-3.882812 20.859375zm18.03125 1.355469-3.355469-7.726563c-.535156-1.117187-.28125-2.453124.628907-3.296874.933593-.988282 2.378906-1.304688 3.640624-.800782l41.316407 19.238282c3.015625 1.402343 6.585937.789062 8.964843-1.535157 2.378907-2.324219 3.070313-5.878906 1.734376-8.925781l-18.375-41.96875c-.523438-1.121094-.257813-2.453125.660156-3.289062.976562-1.019532 2.496094-1.308594 3.78125-.722657l7.863281 3.300781c4.824219 2.007813 10.253906 2.007813 15.078125 0l7.863281-3.300781c1.289063-.589843 2.804688-.296875 3.785157.722657.898437.804687 1.175781 2.09375.691406 3.199218l-18.410156 42.054688c-1.332032 3.046875-.640626 6.601562 1.738281 8.925781 2.378906 2.324219 5.945312 2.9375 8.960937 1.535156l41.328125-19.238281c1.261719-.503906 2.707031-.1875 3.640625.800781.910156.84375 1.164063 2.175781.628906 3.292969l-3.355468 7.726562c-2.085938 4.824219-2.085938 10.292969 0 15.113282l3.355468 7.726562c.535157 1.117188.28125 2.453125-.628906 3.292969-.96875 1.03125-2.484375 1.332031-3.773437.753906l-44.117188-18.058593c-2.933593-1.207032-6.070312-1.824219-9.242187-1.820313-3.164063-.003906-6.300782.613281-9.230469 1.816406l-44.125 18.066407c-1.289063.578124-2.804687.277343-3.773437-.753907-.910157-.839843-1.164063-2.175781-.628907-3.292969l3.355469-7.726562c2.085938-4.820312 2.085938-10.289062 0-15.109375zm0 0"/><path d="m8 316h12v51.808594c-.015625 4.457031 3.546875 8.101562 8 8.191406h240.160156c26.351563 19.699219 58.375 30.324219 91.273438 30.289062 84.125 0 152.566406-68.488281 152.566406-152.617187 0-84.125-68.441406-152.589844-152.566406-152.589844-4.527344 0-9.007813.191407-13.433594.574219v-33.847656c-.007812-2.101563-.859375-4.113282-2.363281-5.578125-1.503907-1.46875-3.535157-2.273438-5.636719-2.230469h-22v-52.191406c-.007812-2.101563-.859375-4.113282-2.363281-5.578125-1.503907-1.46875-3.535157-2.2734378-5.636719-2.230469h-280c-2.101562-.0429688-4.132812.761719-5.636719 2.230469-1.503906 1.464843-2.355469 3.476562-2.363281 5.578125v60c-.015625 4.457031 3.546875 8.101562 8 8.191406h22v44h-22c-2.101562-.042969-4.132812.761719-5.636719 2.230469-1.503906 1.464843-2.355469 3.476562-2.363281 5.578125v112.191406h-12c-2.101562-.042969-4.132812.761719-5.636719 2.230469-1.503906 1.464843-2.3554685 3.476562-2.363281 5.578125v60c-.015625 4.457031 3.546875 8.101562 8 8.191406zm28 0h184.121094c7.480468 16.207031 17.570312 31.070312 29.867187 44h-213.988281zm221.714844-153.398438 21.425781 21.425782c-15.296875 17.578125-24.367187 39.714844-25.800781 62.972656h-30.3125c1.5-31.285156 13.75-61.097656 34.6875-84.398438zm101.71875.71875c49.875 0 90.304687 40.429688 90.304687 90.304688s-40.429687 90.308594-90.304687 90.308594-90.308594-40.433594-90.308594-90.308594c.054688-49.851562 40.453125-90.25 90.308594-90.304688zm-69.265625 170.882813c16.539062 14.273437 37.089843 23.082031 58.832031 25.214844v30.382812c-29.78125-2.265625-57.984375-14.273437-80.261719-34.164062zm74.832031 25.582031c23.636719-1.21875 46.179688-10.328125 64.03125-25.867187l21.425781 21.425781c-23.570312 21.175781-53.796875 33.457031-85.457031 34.726562zm75.300781-37.234375c14.339844-16.757812 23.085938-37.578125 25.019531-59.550781h30.351563c-2.046875 30.007812-13.980469 58.488281-33.9375 80.992188zm25.222657-75.550781c-1.421876-23.105469-10.386719-45.109375-25.511719-62.636719l21.429687-21.433593c20.761719 23.253906 32.902344 52.933593 34.394532 84.070312zm-36.824219-73.953125c-17.800781-15.367187-40.214844-24.367187-63.699219-25.582031v-30.285156c31.511719 1.261718 61.601562 13.4375 85.128906 34.4375zm-79.699219-25.214844c-21.59375 2.117188-42.015625 10.820313-58.5 24.929688l-21.4375-21.4375c22.230469-19.71875 50.308594-31.617188 79.9375-33.871094zm-95.457031 115.167969c1.945312 22.125 10.800781 43.078125 25.3125 59.890625l-21.433594 21.429687c-20.128906-22.550781-32.171875-51.160156-34.230469-81.320312zm-217.542969-247h264v44h-264zm30 60h264v27.917969c-15.566406 3.054687-30.300781 8.082031-43.785156 16.082031h-220.214844zm-30 60h226.601562c-14.9375 12.171875-27.386718 27.109375-36.652343 44h-189.949219zm0 60h182.253906c-5.8125 14.035156-9.4375 28.871094-10.753906 44h-171.5zm-20 60h190.890625c.230469 14.9375 2.628906 29.757812 7.125 44h-198.015625zm0 0"/></g><g transform="matrix(0.08092591277950469 -0.02023147815104706 0.02023147815104706 0.08092591277950469 153.63945576817872 103.58941365949856)" id="L1_8"><path d="m155.507812 153.078125c-4.417968 0-8 3.582031-8 8-.054687 5.191406-4.277343 9.367187-9.464843 9.367187-5.191407 0-9.414063-4.175781-9.46875-9.367187 0-4.417969-3.582031-8-8-8s-8 3.582031-8 8c.089843 14 11.464843 25.304687 25.46875 25.304687 14 0 25.375-11.304687 25.464843-25.304687 0-4.417969-3.582031-8-8-8zm0 0"/><path d="m225.367188 186.542969c14.058593-.019531 25.449218-11.410157 25.46875-25.464844 0-4.417969-3.582032-8-8-8-4.417969 0-8 3.582031-8 8-.054688 5.191406-4.277344 9.367187-9.464844 9.367187-5.191406 0-9.414063-4.175781-9.46875-9.367187 0-4.417969-3.582032-8-8-8-4.417969 0-8 3.582031-8 8 .015625 14.058594 11.410156 25.449219 25.464844 25.464844zm0 0"/><path d="m417.566406 343.695312c-1 0-2.183594.039063-3.183594.074219v-13.226562c.070313-2.035157-.710937-4.003907-2.15625-5.4375-1.445312-1.433594-3.425781-2.195313-5.457031-2.105469h-7.386719v-23.222656c-.007812-2.101563-.859374-4.105469-2.367187-5.570313-1.503906-1.460937-3.53125-2.257812-5.632813-2.207031h-143.574218c-.46875-.097656-.945313-.136719-1.425782-.113281v-20.269531c4.8125-3.449219 9.277344-7.351563 13.335938-11.660157 17.234375-17.5625 28.253906-40.277343 31.382812-64.683593 12.886719-3.203126 22.035157-14.636719 22.335938-27.910157.300781-13.277343-8.324219-25.113281-21.054688-28.894531v-52.46875h16.800782c4.425781-.019531 8.003906-3.617188 8-8.042969-.042969-43.015625-34.894532-77.8867185-77.910156-77.957031h-71.972657c-8.976562 0-17.722656 2.828125-25 8.082031-42.699219 16.359375-70.898437 57.34375-70.917969 103.066407v27.136718c-12.992187 3.292969-22.042968 15.054688-21.902343 28.457032 0 13.417968 9.84375 25.078124 22.785156 28.457031 3.179687 24.449219 14.261719 47.191406 31.558594 64.757812 5.367187 5.511719 10.558593 10.386719 17.558593 14.59375v21.449219h-42.597656c-42.957031 0-78.402344 35.121094-78.402344 78.078125v61.792969c0 4.417968 4.078126 8.128906 8.5 8.128906h220.5v9.609375c.050782 4.527344 3.644532 8.21875 8.167969 8.390625h1.832031v22.378906c0 4.417969 4 7.621094 8.425782 7.621094h121.902344c13.902343 10.289062 30.75 15.816406 48.046874 15.769531 29.371094.0625 56.539063-15.585937 71.222657-41.023437 14.6875-25.441406 14.648437-56.789063-.09375-82.195313-14.746094-25.402343-41.949219-40.988281-71.320313-40.855469zm-162.183594 25.304688h102.863282c-4.070313 4.734375-7.804688 9.746094-11.175782 15h-91.6875zm162.375 99.234375c-23.421874 0-42.410156-18.988281-42.410156-42.410156s18.988282-42.40625 42.410156-42.40625c23.421876 0 42.40625 18.984375 42.40625 42.40625-.023437 23.414062-18.996093 42.386719-42.40625 42.410156zm-58.121093-48.234375h-7.738281c1.125-12.804688 5.976562-25.003906 13.957031-35.082031l5.5 5.5c-6.582031 8.578125-10.640625 18.824219-11.71875 29.582031zm93.351562-40.722656c-8.328125-6.332032-18.210937-10.296875-28.605469-11.476563v-7.777343c12.445313 1.25 24.273438 6.023437 34.101563 13.753906zm-44.605469-18.90625v7.808594c-9.324218 1.511718-18.136718 5.273437-25.679687 10.957031l-5.5-5.5c9.054687-7.066407 19.808594-11.640625 31.179687-13.265625zm-153 39.628906h84.402344c-1.554687 4.894531-2.691406 9.914062-3.402344 15h-81zm-10 46v-15h90.410157c.320312 5.054688 1.078125 10.074219 2.257812 15zm114.871094-10c1.605469 9.105469 5.363282 17.695312 10.953125 25.058594l-5.5 5.5c-6.980469-8.875-11.558593-19.398438-13.296875-30.558594zm22.269532 36.375c7.582031 5.761719 16.460937 9.574219 25.859374 11.097656v7.808594c-11.445312-1.636719-22.261718-6.261719-31.355468-13.414062zm41.859374 11.472656c10.472657-1.1875 20.421876-5.203125 28.785157-11.613281l5.5 5.5c-9.863281 7.816406-21.757813 12.636719-34.28125 13.898437zm40.0625-22.964844c5.515626-7.328124 9.222657-15.851562 10.816407-24.882812h7.84375c-1.730469 11.082031-6.261719 21.539062-13.164063 30.375zm11.429688-40.882812c-1.066406-10.683594-5.070312-20.863281-11.570312-29.40625l5.5-5.5c7.898437 10.046875 12.695312 22.175781 13.8125 34.90625zm-96.625-67h-107.867188v-14h127v6.933594c-6.578124 1.765625-12.984374 4.128906-19.132812 7.066406zm-123.867188-45h128v15h-128zm42.25-141.257812c-.085937 4.148437-2.007812 8.046874-5.25 10.636718v-21.269531c3.242188 2.589844 5.164063 6.488281 5.25 10.632813zm-58.359374-150.742188c31.429687 0 57.464843 24 61.398437 54h-133.371094c-14.910156 0-27-12.089844-27-27s12.089844-27 27-27zm-114.324219 19.898438c-3.34375 19.742187 7.421875 39.164062 25.933593 46.789062-24.019531 25.664062-50.5 29.171875-63.5 29.210938v-.75c.109376-29.566407 14-57.394532 37.566407-75.25zm-59.464844 130.84375c0-4.617188 1.898437-8.699219 5.898437-11.117188v21.773438c-3.722656-2.246094-5.972656-6.304688-5.898437-10.65625zm49.601563 82.058593c-17.761719-18.09375-27.707032-42.433593-27.703126-67.785156v-53.140625c17-.074219 52.445313-4.875 81.777344-41.875h107.222656v95.015625c-.058593 25.371094-10.066406 49.710937-27.875 67.785156-17.929687 18.414063-41.675781 28.554688-66.714843 28.554688-25.039063 0-48.78125-10.144531-66.707031-28.554688zm66.753906 44.554688c16.886718.015625 33.53125-4.007813 48.542968-11.742188v18.121094l-47.714843 29.886719-45.285157-29.773438v-16.246094c13.9375 6.429688 29.105469 9.757813 44.457032 9.75zm-165.457032 80.722656c0-34.132813 28.265626-62.078125 62.402344-62.078125h47.792969l47.804687 31.4375v84.5625h-158zm174 53.921875v-84.449219l49-30.734375v17.726563c.164063 4.589843 3.835938 8.277343 8.425782 8.457031h7.574218v14h-7.574218c-4.5625.113281-8.25 3.75-8.425782 8.308594v53.691406h-1.832031c-4.421875-.085938-8.074219 3.425781-8.167969 7.84375v5.15625zm65 34h88.460938c2.488281 5.035156 5.597656 9.738281 9.253906 14h-97.714844zm0 0"/></g><path d="M59.989,21c-0.099-1.711-2.134-3.048-6.204-4.068c0.137-0.3,0.214-0.612,0.215-0.936V9h-0.017C53.625,3.172,29.743,3,27,3  S0.375,3.172,0.017,9H0v0.13v0v0l0,6.869c0.005,1.9,2.457,3.387,6.105,4.494c-0.05,0.166-0.08,0.335-0.09,0.507H6v0.13v0v0l0,6.857  C2.07,28.999,0.107,30.317,0.01,32H0v0.13v0v0l0,6.869c0.003,1.323,1.196,2.445,3.148,3.38c-0.074,0.203-0.12,0.41-0.133,0.622H3  v0.13v0v0l0,6.869c0.008,3.326,7.497,5.391,15.818,6.355c0.061,0.012,0.117,0.037,0.182,0.037c0.019,0,0.035-0.01,0.054-0.011  c1.604,0.181,3.234,0.322,4.847,0.423c0.034,0.004,0.064,0.02,0.099,0.02c0.019,0,0.034-0.01,0.052-0.011  C26.1,56.937,28.115,57,30,57c1.885,0,3.9-0.063,5.948-0.188c0.018,0.001,0.034,0.011,0.052,0.011c0.035,0,0.065-0.017,0.099-0.02  c1.613-0.101,3.243-0.241,4.847-0.423C40.965,56.38,40.981,56.39,41,56.39c0.065,0,0.121-0.025,0.182-0.037  c8.321-0.964,15.809-3.03,15.818-6.357V43h-0.016c-0.07-1.226-1.115-2.249-3.179-3.104c0.126-0.289,0.195-0.589,0.195-0.9V32.46  c3.59-1.104,5.995-2.581,6-4.464V21H59.989z M51.892,39.321l-0.341,0.299C51.026,40.083,50.151,40.55,49,41v-4.768  c1.189-0.414,2.201-0.873,3-1.376v4.138C52,39.097,51.962,39.207,51.892,39.321z M29.526,43.968  c-0.146,0.004-0.293,0.006-0.44,0.009c-0.357,0.007-0.723,0.009-1.085,0.012v-4.995c0.275-0.003,0.55-0.007,0.825-0.012  c0.053-0.001,0.106-0.002,0.159-0.003c1.007-0.019,2.014-0.05,3.016-0.096v4.993c-0.214,0.011-0.429,0.021-0.646,0.03  C30.753,43.933,30.145,43.953,29.526,43.968z M25.159,43.982c-0.458-0.008-0.914-0.019-1.367-0.033  c-0.056-0.002-0.112-0.004-0.168-0.006c-0.545-0.018-1.086-0.041-1.623-0.067v-4.992c1.002,0.047,2.009,0.078,3.016,0.096  c0.053,0.001,0.106,0.002,0.158,0.003c0.275,0.005,0.55,0.009,0.825,0.012v4.998c-0.194-0.002-0.388-0.002-0.581-0.005  C25.331,43.986,25.246,43.983,25.159,43.982z M7.097,41.702C7.064,41.692,7.033,41.683,7,41.674v-4.831  c0.934,0.252,1.938,0.482,3,0.691v4.881c-0.918-0.195-1.765-0.4-2.536-0.61C7.342,41.77,7.216,41.737,7.097,41.702z M28.175,49.983  c0.275,0.005,0.55,0.009,0.825,0.012v4.999c-1.382-0.013-2.716-0.053-4-0.116v-4.993c1.002,0.047,2.009,0.078,3.016,0.096  C28.069,49.981,28.122,49.982,28.175,49.983z M31.984,49.98c1.007-0.019,2.014-0.05,3.016-0.096v4.993  c-1.284,0.063-2.618,0.103-4,0.116v-4.999c0.275-0.003,0.55-0.007,0.825-0.012C31.878,49.982,31.931,49.981,31.984,49.98z   M40,49.528v4.966c-0.961,0.101-1.961,0.19-3,0.263v-4.987C38.014,49.704,39.016,49.623,40,49.528z M42,49.312  c1.031-0.124,2.032-0.265,3-0.422v4.91c-0.942,0.166-1.943,0.319-3,0.458V49.312z M47,48.533c1.062-0.209,2.066-0.439,3-0.691v4.831  c-0.891,0.257-1.894,0.506-3,0.741V48.533z M13,48.533v4.881c-1.106-0.235-2.109-0.484-3-0.741v-4.831  C10.934,48.094,11.938,48.325,13,48.533z M15,48.891c0.968,0.157,1.969,0.298,3,0.422v4.946c-1.057-0.139-2.058-0.292-3-0.458  V48.891z M20,49.528c0.984,0.095,1.986,0.176,3,0.243v4.987c-1.039-0.073-2.039-0.162-3-0.263V49.528z M17.519,43.548  c-0.102-0.01-0.203-0.021-0.304-0.031c-0.072-0.007-0.143-0.016-0.215-0.023v-4.965c0.984,0.095,1.986,0.176,3,0.243v4.983  C19.16,43.695,18.33,43.627,17.519,43.548z M15,38.312v4.946c-1.057-0.139-2.058-0.292-3-0.458v-4.91  C12.968,38.047,13.969,38.189,15,38.312z M34.666,43.708c-0.22,0.017-0.442,0.034-0.666,0.05v-4.987  c1.014-0.067,2.016-0.147,3-0.243v4.966c-0.618,0.065-1.25,0.126-1.899,0.179C34.956,43.686,34.811,43.697,34.666,43.708z   M39,43.258v-4.946c1.031-0.124,2.032-0.265,3-0.422v4.91C41.058,42.966,40.057,43.12,39,43.258z M44,37.533  c1.062-0.209,2.066-0.439,3-0.691v4.831c-0.891,0.257-1.894,0.506-3,0.741V37.533z M30.325,32.965  c-0.752-0.019-1.487-0.048-2.209-0.083c-0.039-0.002-0.078-0.004-0.116-0.005v-4.993c1.002,0.047,2.009,0.078,3.016,0.096  c0.053,0.001,0.106,0.002,0.158,0.003c0.275,0.005,0.55,0.009,0.825,0.012v4.993c-0.487-0.005-0.978-0.007-1.453-0.018  C30.473,32.968,30.398,32.967,30.325,32.965z M7,18.674v-4.831c0.934,0.252,1.938,0.482,3,0.691v4.881  c-0.123-0.026-0.25-0.052-0.37-0.078c-0.532-0.117-1.051-0.239-1.547-0.368C7.705,18.872,7.346,18.773,7,18.674z M25.175,15.983  c0.275,0.005,0.55,0.009,0.825,0.012v4.993c-1.346-0.013-2.684-0.048-4-0.114v-4.989c1.002,0.047,2.009,0.078,3.016,0.096  C25.069,15.981,25.122,15.982,25.175,15.983z M28.984,15.98c1.007-0.019,2.014-0.05,3.016-0.096v4.989  c-0.17,0.008-0.333,0.02-0.504,0.028c-0.014,0.001-0.028,0.001-0.043,0.002c-0.671,0.03-1.355,0.052-2.048,0.068  c-0.108,0.003-0.216,0.004-0.324,0.007c-0.356,0.007-0.72,0.008-1.081,0.012v-4.995c0.275-0.003,0.55-0.007,0.825-0.012  C28.878,15.982,28.931,15.981,28.984,15.98z M51.771,16.482l-0.028-0.006l-0.364,0.283C50.851,17.17,50.04,17.586,49,17.988v-4.757  c1.189-0.414,2.201-0.873,3-1.376v4.138C52,16.145,51.92,16.309,51.771,16.482z M39,20.252v-4.94c1.031-0.124,2.032-0.265,3-0.422  v4.902C41.052,19.96,40.054,20.114,39,20.252z M44,19.407v-4.873c1.062-0.209,2.066-0.439,3-0.691v4.82  C46.104,18.924,45.095,19.173,44,19.407z M37,15.528v4.96c-0.966,0.102-1.966,0.191-3,0.265v-4.982  C35.014,15.704,36.016,15.623,37,15.528z M17,20.49v-4.962c0.984,0.095,1.986,0.176,3,0.243v4.978  C18.982,20.676,17.978,20.593,17,20.49z M15,15.312v4.941c-0.198-0.026-0.404-0.047-0.6-0.074c-0.128-0.018-0.25-0.037-0.376-0.055  c-0.578-0.083-1.143-0.172-1.697-0.265C12.216,19.84,12.109,19.82,12,19.801v-4.91C12.968,15.047,13.969,15.189,15,15.312z   M25.752,32.739c-0.135-0.01-0.271-0.02-0.405-0.03c-0.64-0.05-1.265-0.105-1.875-0.166c-0.131-0.013-0.262-0.027-0.392-0.04  C23.053,32.5,23.027,32.496,23,32.494v-4.966c0.984,0.095,1.986,0.176,3,0.243v4.984C25.919,32.749,25.833,32.745,25.752,32.739z   M19.145,31.992c-0.396-0.063-0.768-0.131-1.145-0.197v-4.904c0.968,0.157,1.969,0.298,3,0.422v4.946  c-0.612-0.081-1.211-0.165-1.786-0.255C19.191,31.999,19.168,31.995,19.145,31.992z M16,26.533v4.873  c-1.105-0.237-2.107-0.489-3-0.751v-4.813C13.934,26.094,14.938,26.325,16,26.533z M11,25.231v4.751  c-1.572-0.607-2.586-1.227-2.916-1.779l-0.067-0.112C8.011,28.06,8.001,28.027,8,27.996l0-4.141  C8.799,24.358,9.811,24.817,11,25.231z M34.984,27.98c1.007-0.019,2.014-0.05,3.016-0.096v4.988c-1.314,0.065-2.65,0.101-4,0.115  v-4.992c0.275-0.003,0.55-0.007,0.825-0.012C34.878,27.982,34.931,27.981,34.984,27.98z M47.907,31.817  c-0.439,0.076-0.882,0.151-1.337,0.22c-0.261,0.04-0.528,0.078-0.796,0.116c-0.253,0.036-0.516,0.067-0.773,0.1v-4.941  c1.031-0.124,2.032-0.265,3-0.422v4.91C47.969,31.806,47.938,31.812,47.907,31.817z M41.136,32.671  c-0.373,0.031-0.758,0.051-1.136,0.078v-4.978c1.014-0.067,2.016-0.147,3-0.243v4.961c-0.581,0.061-1.161,0.122-1.758,0.172  C41.206,32.664,41.172,32.668,41.136,32.671z M52.564,30.796c-0.498,0.139-1.025,0.269-1.563,0.396  c-0.249,0.058-0.503,0.116-0.763,0.172c-0.077,0.017-0.159,0.032-0.237,0.049v-4.879c1.062-0.209,2.066-0.439,3-0.691v4.831  C52.857,30.714,52.712,30.755,52.564,30.796z M57.989,21.065c-0.092,0.679-1.631,1.582-4.378,2.431l0,0  c-3.538,1.093-9.074,2.094-16.09,2.404c-0.359,0.015-0.717,0.03-1.083,0.042c-0.299,0.01-0.599,0.019-0.904,0.027  C34.706,25.987,33.866,26,33,26s-1.706-0.013-2.534-0.032c-0.304-0.007-0.604-0.017-0.904-0.027  c-0.367-0.011-0.725-0.027-1.083-0.042c-7.016-0.31-12.553-1.311-16.09-2.404l0,0c-2.725-0.842-4.261-1.738-4.375-2.414  c0.005-0.019,0.005-0.035,0.017-0.059c0.068,0.017,0.144,0.031,0.213,0.048c0.391,0.093,0.792,0.183,1.2,0.269  c1.987,0.428,4.189,0.779,6.535,1.047c0.008,0,0.014,0.004,0.021,0.004c0.002,0,0.004-0.001,0.005-0.001  c1.598,0.182,3.256,0.325,4.958,0.426c0.013,0,0.024,0.007,0.037,0.007c0.007,0,0.012-0.004,0.019-0.004  c1.225,0.072,2.466,0.125,3.722,0.153C25.51,22.99,26.265,23,27,23c0.525,0,1.063-0.006,1.606-0.016  c7.266-0.112,14-0.976,18.686-2.315c0.216-0.061,0.427-0.124,0.635-0.187c0.127-0.039,0.257-0.077,0.38-0.116  c0.362-0.116,0.709-0.235,1.044-0.359c0.058-0.022,0.113-0.044,0.171-0.066c0.283-0.107,0.555-0.218,0.815-0.331  c0.075-0.033,0.152-0.065,0.225-0.098c0.277-0.125,0.545-0.253,0.793-0.386c0.112-0.059,0.209-0.12,0.314-0.18  c0.12-0.069,0.24-0.139,0.351-0.21c0.063-0.04,0.138-0.078,0.198-0.118C56.695,19.589,57.875,20.651,57.989,21.065z M27,5  c16.489,0,24.829,2.596,24.985,4.086c-0.121,0.676-1.656,1.569-4.374,2.409l0,0c-3.538,1.093-9.074,2.094-16.09,2.404  c-0.359,0.015-0.717,0.03-1.083,0.042c-0.299,0.01-0.599,0.019-0.904,0.027C28.706,13.987,27.866,14,27,14s-1.706-0.013-2.534-0.032  c-0.304-0.007-0.604-0.017-0.904-0.027c-0.367-0.011-0.725-0.027-1.083-0.042c-7.016-0.31-12.553-1.311-16.09-2.404l0,0  c-2.719-0.84-4.253-1.733-4.374-2.409C2.171,7.596,10.511,5,27,5z M2,15.996l0-4.141c0.799,0.503,1.811,0.962,3,1.376v4.788  C3.055,17.29,2.002,16.559,2,15.996z M6.844,29.835c0.015,0.016,0.038,0.03,0.053,0.046c1.369,1.382,4.204,2.468,7.733,3.278  c0.081,0.019,0.167,0.037,0.249,0.056c0.259,0.058,0.522,0.115,0.788,0.17c3.241,0.69,7.11,1.189,11.325,1.436  c0.003,0,0.005,0.001,0.007,0.001c0.002,0,0.003-0.001,0.004-0.001c1.354,0.079,2.739,0.134,4.153,0.158  C31.782,34.992,32.398,35,33,35c0.69,0,1.398-0.008,2.118-0.025c1.308-0.027,2.597-0.081,3.868-0.155  c0.005,0,0.009,0.003,0.014,0.003c0.009,0,0.016-0.005,0.025-0.005c4.226-0.249,8.191-0.753,11.544-1.478  c-0.726,0.38-1.72,0.773-2.958,1.156l0,0c-3.735,1.154-9.7,2.205-17.281,2.449c-0.225,0.007-0.447,0.015-0.675,0.021  c-0.245,0.006-0.494,0.01-0.743,0.015C28.283,36.991,27.65,37,27,37c-0.866,0-1.706-0.013-2.534-0.032  c-0.304-0.007-0.604-0.017-0.904-0.027c-0.367-0.011-0.725-0.027-1.083-0.042c-7.016-0.31-12.553-1.311-16.09-2.404l0,0  c-2.75-0.85-4.289-1.754-4.378-2.433C2.122,31.686,3.133,30.745,6.844,29.835z M2,38.996l0-4.141c0.799,0.503,1.811,0.962,3,1.376  v4.769l-0.571-0.222L4.417,40.79C2.847,40.139,2.002,39.5,2,38.996z M5,49.996l0-4.141c0.799,0.503,1.811,0.962,3,1.376v4.788  C6.055,51.29,5.002,50.559,5,49.996z M52,52.019v-4.787c1.189-0.414,2.201-0.873,3-1.376v4.138  C54.999,50.557,53.945,51.289,52,52.019z M54.987,43.077c-0.109,0.677-1.645,1.575-4.376,2.419l0,0  c-3.538,1.093-9.074,2.094-16.09,2.404c-0.359,0.015-0.717,0.03-1.083,0.042c-0.299,0.01-0.599,0.019-0.904,0.027  C31.706,47.987,30.866,48,30,48c-0.866,0-1.707-0.013-2.536-0.032c-0.301-0.007-0.598-0.017-0.895-0.027  c-0.369-0.012-0.729-0.027-1.09-0.042c-7.016-0.31-12.552-1.311-16.09-2.404l0,0c-2.645-0.817-4.173-1.685-4.365-2.355  c0.298,0.104,0.607,0.205,0.924,0.304c0.032,0.01,0.064,0.02,0.096,0.029c0.27,0.083,0.546,0.163,0.829,0.241  c0.107,0.03,0.215,0.06,0.324,0.089c0.16,0.043,0.324,0.084,0.488,0.126c3.642,0.933,8.291,1.594,13.31,1.891  c0.002,0,0.003,0.001,0.005,0.001c0.001,0,0.002-0.001,0.003-0.001c1.55,0.092,3.133,0.149,4.733,0.168  C26.162,45.996,26.585,46,27,46c0.551,0,1.115-0.007,1.686-0.017c1.459-0.024,2.899-0.078,4.307-0.162  c0.003,0,0.005,0.002,0.008,0.002c0.005,0,0.008-0.003,0.013-0.003c1.715-0.103,3.375-0.25,4.97-0.433  c0.006,0,0.011,0.003,0.017,0.003c0.022,0,0.04-0.011,0.062-0.013c1.776-0.205,3.46-0.457,5.023-0.75  c0.322-0.059,0.639-0.12,0.953-0.183c0.07-0.014,0.14-0.028,0.21-0.043c2.953-0.606,5.509-1.391,7.263-2.364  c0.096-0.052,0.186-0.106,0.277-0.159c0.111-0.066,0.217-0.133,0.32-0.201c0.096-0.062,0.207-0.122,0.295-0.185  C54.378,42.196,54.922,42.826,54.987,43.077z M55,30.019v-4.787c1.189-0.414,2.201-0.873,3-1.376v4.138  C57.999,28.557,56.945,29.289,55,30.019z" transform="matrix(0.5203059049831887 0.07432941317616928 -0.07432941317616928 0.5203059049831887 181.62070524578942 215.16094045521925)" id="L1_9"/><g transform="matrix(0.08113400638103485 0 0 0.08113400638103485 -3.9308180809020996 3.055226596915986)" id="L1_10"><path d="M337.897,189.476c-0.01-0.082-0.016-0.165-0.028-0.246c-0.058-0.404-0.135-0.807-0.244-1.205   c-0.001-0.004-0.003-0.008-0.004-0.013c-0.102-0.372-0.232-0.739-0.379-1.102c-0.042-0.104-0.088-0.204-0.133-0.306   c-0.116-0.262-0.245-0.52-0.385-0.774c-0.061-0.111-0.12-0.222-0.186-0.331c-0.035-0.059-0.063-0.12-0.1-0.179   c-0.148-0.235-0.31-0.456-0.474-0.675c-0.031-0.041-0.056-0.084-0.087-0.124c-0.25-0.324-0.52-0.625-0.803-0.91   c-0.053-0.054-0.111-0.104-0.166-0.156c-0.246-0.237-0.501-0.459-0.767-0.668c-0.068-0.053-0.134-0.106-0.204-0.157   c-0.356-0.264-0.723-0.51-1.106-0.723L185.506,98.164l84.825-53.414l142.207,80.832l-59.891,37.713   c-4.674,2.942-6.077,9.117-3.134,13.79c2.942,4.674,9.116,6.077,13.79,3.134l74.026-46.613c2.976-1.873,4.749-5.172,4.669-8.688   c-0.079-3.516-1.998-6.73-5.056-8.468L275.009,24.404c-3.203-1.822-7.15-1.732-10.27,0.231L160.783,90.096   c-0.021,0.013-0.043,0.027-0.064,0.04l-51.947,32.711c-0.024,0.015-0.048,0.03-0.071,0.045L4.674,188.398   c-2.976,1.873-4.749,5.172-4.669,8.688c0.079,3.516,1.998,6.73,5.056,8.468l161.934,92.046c1.534,0.873,3.238,1.307,4.941,1.307   c1.853,0,3.703-0.515,5.328-1.538l74.026-46.614c4.674-2.942,6.077-9.117,3.134-13.79c-2.941-4.674-9.117-6.078-13.79-3.134   l-68.961,43.424L29.466,196.421l84.826-53.415l151.67,86.212v114.182c0,3.642,1.979,6.995,5.167,8.755   c1.507,0.832,3.171,1.245,4.833,1.245c1.854,0,3.704-0.515,5.328-1.538l52.014-32.753c2.908-1.831,4.672-5.026,4.672-8.462v-120   c0-0.059-0.01-0.115-0.012-0.174C337.958,190.141,337.936,189.809,337.897,189.476z M285.962,325.287V223.401   c0-3.597-1.932-6.916-5.059-8.693l-147.411-83.791l32.813-20.663l142.206,80.833l-12.451,7.84   c-4.674,2.942-6.077,9.117-3.134,13.79c1.9,3.02,5.149,4.673,8.472,4.673c1.82,0,3.664-0.497,5.318-1.539l11.259-7.089v96.366   L285.962,325.287z"/><path d="M426.674,156.681l-74.026,46.613c-4.674,2.942-6.077,9.117-3.134,13.79c1.9,3.02,5.149,4.673,8.472,4.673   c1.82,0,3.664-0.497,5.318-1.539l74.026-46.613c4.674-2.942,6.077-9.117,3.134-13.79   C437.522,155.141,431.347,153.737,426.674,156.681z"/><path d="M240.633,273.83l-68.961,43.424L14.943,228.167c-4.798-2.728-10.906-1.052-13.635,3.752   c-2.729,4.801-1.05,10.906,3.752,13.635l161.934,92.046c1.534,0.873,3.238,1.307,4.941,1.307c1.853,0,3.703-0.515,5.328-1.538   l74.026-46.614c4.674-2.942,6.077-9.117,3.134-13.79C251.482,272.29,245.306,270.886,240.633,273.83z"/><path d="M426.674,196.681l-74.026,46.613c-4.674,2.942-6.077,9.117-3.134,13.79c1.9,3.02,5.149,4.673,8.472,4.673   c1.82,0,3.664-0.497,5.318-1.539l74.026-46.613c4.674-2.942,6.077-9.117,3.134-13.79   C437.522,195.14,431.347,193.737,426.674,196.681z"/><path d="M240.633,313.83l-68.961,43.424L14.943,268.167c-4.798-2.728-10.906-1.052-13.635,3.752   c-2.729,4.801-1.05,10.906,3.752,13.635l161.934,92.046c1.534,0.873,3.238,1.307,4.941,1.307c1.853,0,3.703-0.515,5.328-1.538   l74.026-46.614c4.674-2.942,6.077-9.117,3.134-13.79C251.482,312.289,245.306,310.886,240.633,313.83z"/><path d="M426.674,236.681l-74.026,46.613c-4.674,2.942-6.077,9.117-3.134,13.79c1.9,3.02,5.149,4.673,8.472,4.673   c1.82,0,3.664-0.497,5.318-1.539l74.026-46.613c4.674-2.942,6.077-9.117,3.134-13.79   C437.522,235.141,431.347,233.738,426.674,236.681z"/><path d="M240.633,353.83l-68.961,43.424L14.943,308.167c-4.798-2.728-10.906-1.052-13.635,3.752   c-2.729,4.801-1.05,10.906,3.752,13.635l161.934,92.046c1.534,0.873,3.238,1.307,4.941,1.307c1.853,0,3.703-0.515,5.328-1.538   l74.026-46.614c4.674-2.942,6.077-9.117,3.134-13.79C251.482,352.29,245.306,350.886,240.633,353.83z"/></g><g transform="matrix(0.07019783556461334 0 0 0.07019783556461334 89.02935409545898 318.029354095459)" id="L1_11"><path d="M487.59,299.894h-7.662v-69.015c0-10.926-5.438-20.6-13.743-26.478v-9.397c0-13.631-11.089-24.72-24.72-24.72h-5.721    l21.889-32.12c7.337-10.766,4.547-25.495-6.219-32.833L302.883,4.111c-5.215-3.555-11.501-4.867-17.705-3.69    c-6.201,1.175-11.574,4.694-15.128,9.91L141.849,198.454h-35.675l8.607-87.13c0.097-0.982,0.735-1.833,1.625-2.168    c11.089-4.181,20.699-11.989,27.059-21.985c0.501-0.787,1.446-1.237,2.424-1.138l55.955,5.528    c4.012,0.389,7.581-2.533,7.977-6.543s-2.533-7.581-6.543-7.977l-55.955-5.528c-6.495-0.636-12.689,2.357-16.169,7.825    c-4.676,7.35-11.742,13.09-19.895,16.164c-6.137,2.314-10.351,7.826-10.999,14.387l-8.748,88.564h-9.303L95.821,60.649    c0.49-4.96,4.917-8.604,9.883-8.107l113.074,11.17c4.01,0.387,7.581-2.533,7.977-6.543s-2.533-7.581-6.543-7.977l-113.074-11.17    C94.174,36.743,82.581,46.248,81.3,59.214l-10.972,111.07H51.643c-13.63,0-24.72,11.089-24.72,24.72v6.41    c-11.151,5.134-18.915,16.406-18.915,29.465v248.695c0,17.88,14.546,32.426,32.427,32.426h407.067    c17.88,0,32.426-14.546,32.426-32.426V410.56h7.662c9.044,0,16.401-7.357,16.401-16.4v-77.865    C503.992,307.251,496.634,299.894,487.59,299.894z M441.465,184.876L441.465,184.876c5.586-0.001,10.129,4.543,10.129,10.129    v3.717c-1.342-0.17-2.705-0.267-4.092-0.267h-30.955l9.253-13.579H441.465z M282.107,18.547c1.36-1.995,3.415-3.341,5.787-3.791    c0.567-0.107,1.136-0.161,1.701-0.161c1.797,0,3.553,0.538,5.071,1.572l148.531,101.22c4.118,2.807,5.186,8.441,2.38,12.559    l-46.686,68.506h-11.204l22.889-33.587c3.712-5.447,4.018-12.379,0.796-18.092c-4.282-7.59-6.018-16.527-4.888-25.166    c0.84-6.427-1.988-12.701-7.38-16.375L322.106,52.76c-5.393-3.675-12.267-4.012-17.941-0.879    c-7.625,4.21-16.578,5.863-25.208,4.655c-6.4-0.898-12.891,1.992-16.548,7.357l-91.699,134.56h-11.204L282.107,18.547z     M285.32,142.438c-31.771,0-57.851,24.773-59.976,56.015h-36.979L274.464,72.11c0.001,0,0.001,0,0.001,0    c0.489-0.719,1.3-1.147,2.133-1.147c0.111,0,0.222,0.008,0.333,0.023c11.738,1.642,23.913-0.604,34.285-6.331    c0.816-0.452,1.864-0.387,2.672,0.163l76.999,52.473c0.806,0.55,1.249,1.502,1.129,2.426c-1.537,11.749,0.825,23.903,6.648,34.225    c0.467,0.829,0.41,1.891-0.144,2.706l-28.488,41.804h-24.733C343.172,167.211,317.093,142.438,285.32,142.438z M330.668,198.454    h-90.695c2.09-23.189,21.624-41.424,45.347-41.424C309.044,157.029,328.579,175.265,330.668,198.454z M41.514,195.004    c0-5.586,4.543-10.13,10.129-10.13h17.244l-1.341,13.579H41.514V195.004z M22.599,230.879c0-9.834,8.001-17.835,17.836-17.835    h407.067c9.835,0,17.835,8.001,17.835,17.835v20.244H22.599V230.879z M465.337,479.574c0,9.834-8,17.835-17.835,17.835H40.435    c-9.835,0-17.836-8.001-17.836-17.835V459.33h39.342c4.03,0,7.295-3.266,7.295-7.295c0-4.029-3.266-7.295-7.295-7.295H22.599    V265.714h442.738v34.18h-69.366h-0.001c-21.856,0-40.788,12.74-49.773,31.181c-0.03,0.062-0.064,0.122-0.095,0.184    c-0.076,0.157-0.142,0.32-0.216,0.478c-1.07,2.273-2,4.626-2.757,7.054c-0.002,0.007-0.004,0.013-0.006,0.02    c-1.615,5.189-2.486,10.702-2.486,16.416c0,30.511,24.822,55.333,55.332,55.333h0.001h69.366v34.18H108.655    c-4.03,0-7.295,3.266-7.295,7.295c0,4.029,3.266,7.295,7.295,7.295h356.682V479.574z M489.401,394.159    c0,0.998-0.812,1.81-1.811,1.81h-91.618c-15.445,0-28.911-8.639-35.818-21.338c-0.314-0.577-0.614-1.163-0.901-1.756    c-0.573-1.187-1.09-2.406-1.547-3.654c-1.602-4.366-2.476-9.08-2.476-13.994s0.875-9.628,2.476-13.994    c0.458-1.247,0.975-2.466,1.547-3.654c0.287-0.593,0.587-1.179,0.901-1.756c6.907-12.699,20.373-21.338,35.818-21.338h91.618    c0.998,0,1.811,0.812,1.811,1.81V394.159z"/><path d="M397.681,325.627c-16.322,0-29.6,13.279-29.6,29.6c0,16.321,13.278,29.599,29.6,29.599c16.322,0,29.6-13.278,29.6-29.599    C427.281,338.906,414.003,325.627,397.681,325.627z M397.681,370.235c-8.276,0-15.009-6.733-15.009-15.008    c0-8.275,6.733-15.009,15.009-15.009s15.009,6.733,15.009,15.009S405.957,370.235,397.681,370.235z"/></g><g transform="matrix(0.10060098474368818 -0.016225964910461813 0.016225964910461813 0.10060098474368818 0.4557323939881286 186.3728008292144)" id="L1_12"><circle cx="137" cy="190" r="71" id="XMLID_1732_" fill="#a7a9ac"/><circle cx="230" cy="56" r="46" id="XMLID_1731_" fill="#a7a9ac"/><path d="M432.402,331.5v-43.3c0-14.7-11.9-26.6-26.6-26.6h-6.5c-9.1-23.8-24.6-45.4-45.4-62.9c0-0.1,0-0.1-0.1-0.2    c-3.1-10.9-0.8-22.6,6.8-34.7c4.1-6.5,4-14.5-0.1-20.9s-11.3-9.8-18.9-8.9c-28.9,3.6-46.1,16.8-56.1,29    c-9.6-2.7-19.6-4.7-29.6-5.9c-5-0.6-9.5,3-10.1,7.9c-0.6,5,3,9.5,7.9,10.1c11.1,1.3,22,3.7,32.5,7c3.8,1.2,8-0.2,10.3-3.6    c6.9-10.3,20.8-23.3,47.3-26.5c0.2,0,0.9-0.1,1.4,0.6c0.5,0.8,0.1,1.3,0,1.5c-10.3,16.4-13.3,33.5-8.8,49.3c0,0.1,0.1,0.2,0.1,0.4    c0.1,2.6,1.3,5.1,3.4,6.8c21.2,17.1,36.6,38.9,44.4,62.9c1.2,3.7,4.7,6.2,8.6,6.2c0.1,0,0.1,0,0.2,0h12.7c4.7,0,8.5,3.8,8.5,8.5    v43.3c0,4.7-3.8,8.5-8.5,8.5h-12.1c-4,0-7.5,2.6-8.7,6.4c-5.7,18.5-30.4,49.6-40,60.8l-2.2,1.9c-20.3,18.4-22.4,40.1-22.6,46.3    c0,0.1,0,0.1,0,0.2v14.3c0,0.2-0.2,0.4-0.4,0.4h-57.9c-0.2,0-0.4-0.2-0.4-0.4v-13.7c0-2.6-1.1-5-3-6.7s-4.5-2.5-7-2.3    c-14.6,1.5-29.4,1.3-43.7-0.6c-2.6-0.3-5.2,0.4-7.2,2.2c-2,1.7-3.1,4.2-3.1,6.8v14.3c0,0.2-0.2,0.4-0.4,0.4h-57.9    c-0.2,0-0.4-0.2-0.4-0.4v-4.4c0-0.1,0-0.3,0-0.4c-0.5-10.4-3.8-36.8-24.3-57.9c-9.9-10.2-18.8-23.6-26.3-39.9    c-0.1-0.1-0.1-0.2-0.2-0.3c-4.5-8.7-7.9-17.9-10.2-27.2c0-0.1,0-0.2-0.1-0.2l-0.1-0.3c0-0.1-0.1-0.2-0.1-0.3    c-3.6-12.1-3.2-27.3-3.2-27.5c0-0.1,0-0.2,0-0.3c0-6.7,0.6-13.4,1.7-19.9c0.8-4.9-2.5-9.6-7.4-10.4s-9.6,2.5-10.4,7.4    c-1.3,7.5-1.9,15.1-1.9,22.8c0,1.9-0.3,18.6,4,33l0.1,0.2c2.6,10.7,6.5,21.1,11.6,31c8.4,18.1,18.4,33.2,29.7,44.8    c16.1,16.6,18.8,37.5,19.2,45.9v4.1c0,0.3,0,0.7,0,1c0,0.1,0,0.2,0,0.3c0.7,9.7,8.8,17.3,18.5,17.3h57.9    c10.2,0,18.6-8.3,18.6-18.6v-4.2c9.2,0.8,18.5,0.9,27.8,0.4v3.8c0,10.2,8.3,18.6,18.6,18.6h57.9c10.2,0,18.6-8.3,18.6-18.6v-14.2    c0.1-3.4,1.4-19.4,16.5-33.1l2.6-2.2c0.3-0.3,0.6-0.6,0.9-0.9c1.4-1.6,30.8-35.5,41.7-61.4h5.8    C420.502,358.1,432.402,346.1,432.402,331.5z"/><path d="M56.802,190.5c0,44.5,36.2,80.6,80.6,80.6s80.6-36.2,80.6-80.6s-36.2-80.6-80.6-80.6S56.802,146.1,56.802,190.5z     M199.902,190.5c0,34.5-28,62.5-62.5,62.5s-62.5-28-62.5-62.5s28-62.5,62.5-62.5S199.902,156.1,199.902,190.5z"/><path d="M174.502,56c0,30.9,25.1,56,56,56s56-25.1,56-56s-25.1-56-56-56S174.502,25.1,174.502,56z M268.302,56    c0,20.9-17,37.9-37.9,37.9s-37.9-17-37.9-37.9s17-37.9,37.9-37.9C251.302,18.1,268.302,35.1,268.302,56z"/></g></defs><g fi:class="KUsePattern"><pattern id="pattern_L1_0" width="350" height="350" patternUnits="userSpaceOnUse"><use xlink:href="#L1_0" x="-350" y="-350"/><use xlink:href="#L1_0" x="0" y="-350"/><use xlink:href="#L1_0" x="350" y="-350"/><use xlink:href="#L1_0" x="-350" y="0"/><use xlink:href="#L1_0" x="0" y="0"/><use xlink:href="#L1_0" x="350" y="0"/><use xlink:href="#L1_0" x="-350" y="350"/><use xlink:href="#L1_0" x="0" y="350"/><use xlink:href="#L1_0" x="350" y="350"/></pattern><rect x="0" y="0" width="100%" height="100%" fill="url(#pattern_L1_0)"/></g><g fi:class="KUsePattern"><pattern id="pattern_L1_1" width="350" height="350" patternUnits="userSpaceOnUse"><use xlink:href="#L1_1" x="-350" y="-350"/><use xlink:href="#L1_1" x="0" y="-350"/><use xlink:href="#L1_1" x="350" y="-350"/><use xlink:href="#L1_1" x="-350" y="0"/><use xlink:href="#L1_1" x="0" y="0"/><use xlink:href="#L1_1" x="350" y="0"/><use xlink:href="#L1_1" x="-350" y="350"/><use xlink:href="#L1_1" x="0" y="350"/><use xlink:href="#L1_1" x="350" y="350"/></pattern><rect x="0" y="0" width="100%" height="100%" fill="url(#pattern_L1_1)"/></g><g fi:class="KUsePattern"><pattern id="pattern_L1_2" width="350" height="350" patternUnits="userSpaceOnUse"><use xlink:href="#L1_2" x="-350" y="-350"/><use xlink:href="#L1_2" x="0" y="-350"/><use xlink:href="#L1_2" x="350" y="-350"/><use xlink:href="#L1_2" x="-350" y="0"/><use xlink:href="#L1_2" x="0" y="0"/><use xlink:href="#L1_2" x="350" y="0"/><use xlink:href="#L1_2" x="-350" y="350"/><use xlink:href="#L1_2" x="0" y="350"/><use xlink:href="#L1_2" x="350" y="350"/></pattern><rect x="0" y="0" width="100%" height="100%" fill="url(#pattern_L1_2)"/></g><g fi:class="KUsePattern"><pattern id="pattern_L1_3" width="350" height="350" patternUnits="userSpaceOnUse"><use xlink:href="#L1_3" x="-350" y="-350"/><use xlink:href="#L1_3" x="0" y="-350"/><use xlink:href="#L1_3" x="350" y="-350"/><use xlink:href="#L1_3" x="-350" y="0"/><use xlink:href="#L1_3" x="0" y="0"/><use xlink:href="#L1_3" x="350" y="0"/><use xlink:href="#L1_3" x="-350" y="350"/><use xlink:href="#L1_3" x="0" y="350"/><use xlink:href="#L1_3" x="350" y="350"/></pattern><rect x="0" y="0" width="100%" height="100%" fill="url(#pattern_L1_3)"/></g><g fi:class="KUsePattern"><pattern id="pattern_L1_4" width="350" height="350" patternUnits="userSpaceOnUse"><use xlink:href="#L1_4" x="-350" y="-350"/><use xlink:href="#L1_4" x="0" y="-350"/><use xlink:href="#L1_4" x="350" y="-350"/><use xlink:href="#L1_4" x="-350" y="0"/><use xlink:href="#L1_4" x="0" y="0"/><use xlink:href="#L1_4" x="350" y="0"/><use xlink:href="#L1_4" x="-350" y="350"/><use xlink:href="#L1_4" x="0" y="350"/><use xlink:href="#L1_4" x="350" y="350"/></pattern><rect x="0" y="0" width="100%" height="100%" fill="url(#pattern_L1_4)"/></g><g fi:class="KUsePattern"><pattern id="pattern_L1_5" width="350" height="350" patternUnits="userSpaceOnUse"><use xlink:href="#L1_5" x="-350" y="-350"/><use xlink:href="#L1_5" x="0" y="-350"/><use xlink:href="#L1_5" x="350" y="-350"/><use xlink:href="#L1_5" x="-350" y="0"/><use xlink:href="#L1_5" x="0" y="0"/><use xlink:href="#L1_5" x="350" y="0"/><use xlink:href="#L1_5" x="-350" y="350"/><use xlink:href="#L1_5" x="0" y="350"/><use xlink:href="#L1_5" x="350" y="350"/></pattern><rect x="0" y="0" width="100%" height="100%" fill="url(#pattern_L1_5)"/></g><g fi:class="KUsePattern"><pattern id="pattern_L1_6" width="350" height="350" patternUnits="userSpaceOnUse"><use xlink:href="#L1_6" x="-350" y="-350"/><use xlink:href="#L1_6" x="0" y="-350"/><use xlink:href="#L1_6" x="350" y="-350"/><use xlink:href="#L1_6" x="-350" y="0"/><use xlink:href="#L1_6" x="0" y="0"/><use xlink:href="#L1_6" x="350" y="0"/><use xlink:href="#L1_6" x="-350" y="350"/><use xlink:href="#L1_6" x="0" y="350"/><use xlink:href="#L1_6" x="350" y="350"/></pattern><rect x="0" y="0" width="100%" height="100%" fill="url(#pattern_L1_6)"/></g><g fi:class="KUsePattern"><pattern id="pattern_L1_7" width="350" height="350" patternUnits="userSpaceOnUse"><use xlink:href="#L1_7" x="-350" y="-350"/><use xlink:href="#L1_7" x="0" y="-350"/><use xlink:href="#L1_7" x="350" y="-350"/><use xlink:href="#L1_7" x="-350" y="0"/><use xlink:href="#L1_7" x="0" y="0"/><use xlink:href="#L1_7" x="350" y="0"/><use xlink:href="#L1_7" x="-350" y="350"/><use xlink:href="#L1_7" x="0" y="350"/><use xlink:href="#L1_7" x="350" y="350"/></pattern><rect x="0" y="0" width="100%" height="100%" fill="url(#pattern_L1_7)"/></g><g fi:class="KUsePattern"><pattern id="pattern_L1_8" width="350" height="350" patternUnits="userSpaceOnUse"><use xlink:href="#L1_8" x="-350" y="-350"/><use xlink:href="#L1_8" x="0" y="-350"/><use xlink:href="#L1_8" x="350" y="-350"/><use xlink:href="#L1_8" x="-350" y="0"/><use xlink:href="#L1_8" x="0" y="0"/><use xlink:href="#L1_8" x="350" y="0"/><use xlink:href="#L1_8" x="-350" y="350"/><use xlink:href="#L1_8" x="0" y="350"/><use xlink:href="#L1_8" x="350" y="350"/></pattern><rect x="0" y="0" width="100%" height="100%" fill="url(#pattern_L1_8)"/></g><g fi:class="KUsePattern"><pattern id="pattern_L1_9" width="350" height="350" patternUnits="userSpaceOnUse"><use xlink:href="#L1_9" x="-350" y="-350"/><use xlink:href="#L1_9" x="0" y="-350"/><use xlink:href="#L1_9" x="350" y="-350"/><use xlink:href="#L1_9" x="-350" y="0"/><use xlink:href="#L1_9" x="0" y="0"/><use xlink:href="#L1_9" x="350" y="0"/><use xlink:href="#L1_9" x="-350" y="350"/><use xlink:href="#L1_9" x="0" y="350"/><use xlink:href="#L1_9" x="350" y="350"/></pattern><rect x="0" y="0" width="100%" height="100%" fill="url(#pattern_L1_9)"/></g><g fi:class="KUsePattern"><pattern id="pattern_L1_10" width="350" height="350" patternUnits="userSpaceOnUse"><use xlink:href="#L1_10" x="-350" y="-350"/><use xlink:href="#L1_10" x="0" y="-350"/><use xlink:href="#L1_10" x="350" y="-350"/><use xlink:href="#L1_10" x="-350" y="0"/><use xlink:href="#L1_10" x="0" y="0"/><use xlink:href="#L1_10" x="350" y="0"/><use xlink:href="#L1_10" x="-350" y="350"/><use xlink:href="#L1_10" x="0" y="350"/><use xlink:href="#L1_10" x="350" y="350"/></pattern><rect x="0" y="0" width="100%" height="100%" fill="url(#pattern_L1_10)"/></g><g fi:class="KUsePattern"><pattern id="pattern_L1_11" width="350" height="350" patternUnits="userSpaceOnUse"><use xlink:href="#L1_11" x="-350" y="-350"/><use xlink:href="#L1_11" x="0" y="-350"/><use xlink:href="#L1_11" x="350" y="-350"/><use xlink:href="#L1_11" x="-350" y="0"/><use xlink:href="#L1_11" x="0" y="0"/><use xlink:href="#L1_11" x="350" y="0"/><use xlink:href="#L1_11" x="-350" y="350"/><use xlink:href="#L1_11" x="0" y="350"/><use xlink:href="#L1_11" x="350" y="350"/></pattern><rect x="0" y="0" width="100%" height="100%" fill="url(#pattern_L1_11)"/></g><g fi:class="KUsePattern"><pattern id="pattern_L1_12" width="350" height="350" patternUnits="userSpaceOnUse"><use xlink:href="#L1_12" x="-350" y="-350"/><use xlink:href="#L1_12" x="0" y="-350"/><use xlink:href="#L1_12" x="350" y="-350"/><use xlink:href="#L1_12" x="-350" y="0"/><use xlink:href="#L1_12" x="0" y="0"/><use xlink:href="#L1_12" x="350" y="0"/><use xlink:href="#L1_12" x="-350" y="350"/><use xlink:href="#L1_12" x="0" y="350"/><use xlink:href="#L1_12" x="350" y="350"/></pattern><rect x="0" y="0" width="100%" height="100%" fill="url(#pattern_L1_12)"/></g></svg>